<?xml version="1.0" encoding="utf-8"?>
<!-- Svg Vector Icons : http://www.onlinewebfonts.com/icon -->
<!DOCTYPE svg PUBLIC "-//W3C//DTD SVG 1.1//EN" "http://www.w3.org/Graphics/SVG/1.1/DTD/svg11.dtd">
<svg version="1.1" xmlns="http://www.w3.org/2000/svg" xmlns:xlink="http://www.w3.org/1999/xlink" x="0px" y="0px" viewBox="0 0 1000 1000" enable-background="new 0 0 1000 1000" xml:space="preserve">
<metadata> Svg Vector Icons : http://www.onlinewebfonts.com/icon </metadata>
<g><g transform="translate(0.000000,512.000000) scale(0.100000,-0.100000)"><path d="M4631.9,5017.6c-36.4-3.8-149.5-17.3-249.2-28.8c-718.7-82.4-1491.2-369.9-2110.2-783.9C1086.1,3405.7,325.2,2175.2,125.9,735.8c-34.5-239.6-34.5-987.1,0-1226.7c153.3-1115.5,626.8-2075.7,1403-2853.9C2920.4-4736.3,4965.4-5157.9,6815-4435.4c1061.8,414,2020.2,1286.1,2547.2,2319.2c799.3,1560.2,701.5,3463.4-253,4910.5c-787.7,1199.8-2008.7,1978-3427,2188.8C5494.4,5009.9,4773.8,5034.8,4631.9,5017.6z M5477.2,4875.8c1079.1-105.4,2116-599.9,2894.2-1378.1c379.5-379.5,657.4-768.6,898.9-1257.3c235.7-479.2,354.6-839.5,444.7-1370.4c36.4-201.3,42.2-318.2,42.2-728.3c1.9-550.1-19.2-741.7-132.3-1194.1c-207-820.3-645.9-1590.8-1253.5-2200.3c-483-481.1-1113.6-885.5-1749.9-1117.4c-235.7-88.2-651.7-191.7-935.3-235.7c-335.4-51.8-1111.7-47.9-1437.5,9.6c-304.7,51.7-636.3,138-875.9,224.2c-266.4,97.7-766.7,348.8-992.8,500.2C1295-3151.2,559-2058.7,311.8-803.3C135.5,86,219.8,1038.6,551.4,1872.3c599.9,1510.3,1926.2,2618.2,3519,2936.3c136.1,26.8,318.2,55.6,408.2,65.2C4712.4,4896.8,5247.2,4898.8,5477.2,4875.8z"/><path d="M6293.7,3488.1c-88.2-32.6-197.4-113.1-226.2-170.6c-13.4-23-24.9-46-28.8-47.9c-1.9-3.8-32.6,13.4-65.2,38.3c-82.4,59.4-241.5,61.3-320.1,3.8c-88.2-65.2-141.8-161-136.1-237.7c5.7-55.6,13.4-67.1,51.7-67.1c36.4,0,51.8,15.3,72.9,76.7c32.6,95.8,88.2,143.8,168.7,143.8c76.7,0,162.9-74.8,162.9-139.9c0-55.6,42.2-95.8,88.2-86.3c23,3.8,42.2,38.3,57.5,99.7c59.4,228.1,254.9,337.3,454.2,253c76.7-30.7,162.9-130.3,176.3-199.3c24.9-124.6,38.3-147.6,84.3-147.6c34.5,0,49.8,15.3,67.1,67.1c19.2,59.4,28.8,67.1,88.2,67.1c59.4,0,70.9-9.6,103.5-72.8c42.1-90.1,113.1-93.9,122.7-9.6c17.3,151.4-155.2,266.4-310.5,207c-42.1-15.3-51.7-9.6-86.3,46C6715.4,3476.6,6483.4,3555.2,6293.7,3488.1z"/><path d="M2784.3,3122c-343.1-70.9-663.2-318.2-814.6-626.8c-80.5-162.9-136.1-366.1-136.1-507.9c0-74.7-3.8-80.5-105.4-138c-90.1-51.8-203.2-168.7-224.3-235.8c-5.7-13.4-38.3-9.6-95.8,9.6c-111.2,38.3-210.8,15.3-287.5-67.1c-69-74.8-92-184-44.1-218.5c46-34.5,105.4-1.9,105.4,59.4c0,49.8,80.5,124.6,134.2,124.6s134.2-74.8,134.2-124.6c0-26.8,15.3-55.6,34.5-65.2c51.7-28.8,99.7,9.6,99.7,80.5c1.9,141.8,132.2,310.5,277.9,358.4c113.1,36.4,266.4,15.3,360.3-49.8c88.2-61.3,185.9-226.2,185.9-316.3c0-59.4,44.1-103.5,86.3-86.3c30.7,11.5,36.4,23,57.5,115c5.8,30.7,36.4,78.6,67.1,109.3c44.1,46,70.9,55.6,143.8,55.6c76.7,0,99.7-9.6,155.3-65.2c40.3-40.2,65.2-84.3,65.2-113.1c0-70.9,49.8-115,99.7-88.2c32.6,17.2,36.4,34.5,28.8,97.7c-36.4,272.2-377.6,398.7-573.1,212.7l-49.8-47.9l-28.8,55.6c-72.8,139.9-291.3,274.1-448.5,274.1c-40.2,0-44.1,9.6-44.1,88.2c0,345,260.7,736,594.2,895.1c168.7,78.6,299,109.3,475.3,109.3c341.2,0,686.2-185.9,874-467.7l70.9-105.4L3756,2092.8c-124.6-191.7-498.3-766.7-831.8-1278.4l-607.6-931.5l-368-9.6l-368-9.6l-46-53.7c-99.7-116.9-38.3-302.8,109.2-329.7c36.4-5.8,1577.4-7.7,3425.1-5.8l3361.8,5.8l55.6,63.2c59.4,67.1,70.9,139.9,32.6,224.2c-44.1,97.8-86.3,105.4-607.6,105.4c-262.6,0-483,5.7-486.8,15.3c-5.7,7.7-15.3,76.7-23,153.3l-13.4,138h536.7c444.7,0,540.5,3.8,559.7,28.8c11.5,15.3,19.2,38.3,15.3,53.7c-3.8,15.3-95.8,95.8-207,178.3c-109.3,82.4-295.2,245.3-412.1,362.2l-210.8,210.8l237.7,5.7c341.2,7.7,364.2,38.3,151.4,197.4c-147.6,107.3-511.8,461.9-550.1,530.9c-23,42.2-21.1,42.2,159.1,42.2c159.1,0,185.9,3.8,201.2,36.4c24.9,44.1,7.6,63.3-136.1,172.5c-151.4,113.1-345,323.9-396.8,427.4c-23,47.9-47.9,124.6-55.6,170.6c-11.5,69-23,86.3-59.4,90.1c-51.7,7.7-78.6-23-78.6-93.9c0-143.8-197.4-400.6-465.7-609.5c-97.8-78.6-128.4-113.1-124.6-143.8c5.8-38.3,19.2-40.2,193.6-46c118.8-3.8,185.9-13.4,185.9-26.8c0-32.6-458.1-477.2-578.8-561.6c-90.1-61.3-109.3-86.3-105.4-124.6l3.8-47.9l256.8-9.6l254.9-9.6l-226.2-220.4c-126.5-122.7-316.3-289.4-425.5-369.9c-308.6-235.8-295.2-243.4,408.2-243.4c494.5,0,529-1.9,519.4-32.6c-3.8-19.2-15.3-88.2-21.1-153.3l-13.4-120.7h-164.8h-166.7l-57.5,92c-86.3,134.2-116.9,162.9-162.9,138c-49.8-26.8-47.9-53.7,11.5-139.9c26.8-40.2,46-76.7,42.2-82.4c-5.7-3.8-916.2-5.8-2024-3.8L2470-117.1L3081.4,822c337.3,517.5,619.1,944.9,626.7,952.6c7.7,7.7,90.1-46,180.2-118.8c92-74.7,178.2-134.2,191.7-134.2s84.3,61.3,159.1,134.2l136.1,136.1l205.1-193.6c168.7-157.2,210.8-189.7,239.6-174.4c17.3,9.6,122.7,97.8,231.9,193.6c109.2,95.8,205.1,168.7,212.8,159.1c7.7-7.7,180.2-270.2,383.3-580.7C5852.9,885.3,6033,615,6048.4,595.9c42.1-49.8,107.3-34.5,105.4,24.9c0,28.8-168.7,300.9-421.7,684.2c-230,350.7-598,908.5-818.4,1240.1c-289.4,442.7-406.3,605.7-433.2,605.7c-26.8,0-92-84.3-224.3-287.5c-170.6-262.6-218.5-322-218.5-268.3c0,44.1-283.7,314.3-400.6,383.3C3388,3123.9,3060.3,3179.5,2784.3,3122z M4823.6,2439.7c182.1-276,331.6-513.7,333.5-529c0-15.3-80.5-99.7-180.2-187.8l-182.1-161l-191.7,191.7c-105.4,103.5-205.1,189.7-220.4,189.7s-90.1-61.3-166.7-136.1l-136.1-138l-145.7,115l-145.7,116.9l339.2,519.4c185.9,285.6,345,519.4,352.7,519.4S4641.5,2715.7,4823.6,2439.7z M7332.5,2207.8c46-61.3,126.5-149.5,178.3-193.6l95.8-80.5l-138-9.6c-195.5-13.4-207-36.4-90.1-205.1c99.7-143.8,207-260.7,404.4-440.8l132.2-120.7h-191.7c-214.7,0-268.3-21.1-245.3-93.9c19.2-59.4,383.3-437,590.3-609.5l168.7-139.9H7215.6L6194,316l57.5,47.9c316.3,270.2,435.1,379.5,557.7,519.4c208.9,241.5,197.4,274.1-105.4,274.1h-203.2l76.7,61.3c161,130.3,306.7,279.8,423.6,437c170.6,228.1,162.9,268.3-51.7,268.3h-128.4l126.5,122.7c70.9,69,159.1,170.6,195.5,230c55.6,86.3,70.9,99.7,86.3,74.7C7240.5,2334.3,7286.5,2271,7332.5,2207.8z M7267.4,80.3c5.8-55.6,15.3-124.6,21.1-153.3c9.6-51.7,7.7-53.7-67.1-53.7c-88.2,0-86.3-5.7-67.1,189.8c11.5,105.4,17.3,116.9,55.6,116.9S7255.9,166.5,7267.4,80.3z M8398.2-328v-57.5h-3381c-3133.7,0-3382.9,1.9-3400.1,32.6c-15.3,23-13.4,40.2,3.8,61.3c23,28.8,339.2,30.7,3402.1,26.8l3375.2-5.7V-328z"/><path d="M4166.2-1315c-76.7-67.1-182.1-115-251.1-115c-47.9,0-84.3-57.5-59.4-95.8c24.9-38.3,176.3-21.1,279.8,34.5l103.5,53.7l103.5-53.7c143.8-74.7,300.9-74.7,444.7,0l103.5,53.7l103.5-53.7c141.8-74.7,300.9-74.7,444.7,0l103.5,53.7l103.5-53.7c103.5-55.6,254.9-72.8,279.8-34.5s-11.5,95.8-59.4,95.8c-69,0-174.4,47.9-251.1,115c-69,61.3-101.6,59.4-161-11.5c-36.4-44.1-168.7-103.5-233.8-103.5c-72.9,0-178.3,46-256.9,115c-69,61.3-101.6,59.4-161-11.5c-38.3-46-168.7-103.5-237.7-103.5c-69,0-199.3,57.5-237.7,103.5C4267.8-1255.6,4235.2-1253.7,4166.2-1315z"/><path d="M7886.4-1846l-90.1-90.1l-53.7,49.8c-90.1,82.4-120.7,88.2-438.9,93.9c-279.8,5.8-310.5,1.9-383.3-36.4c-90.1-46-233.8-199.3-249.2-266.4c-15.3-55.6,93.9-193.6,220.4-283.7c80.5-57.5,86.3-57.5,362.2-63.3c304.8-7.7,391,7.7,479.2,82.4l55.6,46l74.7-76.7c97.8-101.6,136.1-122.7,172.5-92c21.1,17.2,26.8,90.1,26.8,362.2c0,293.2-3.8,343.1-30.7,352.7C7984.2-1748.2,7980.4-1750.1,7886.4-1846z M7152.4-1936c134.2-57.5,159.1-230,46-325.8c-103.5-88.2-235.8-49.8-354.6,97.7l-40.3,51.7l40.3,55.6c42.1,57.5,174.4,147.6,218.5,147.6C7075.7-1909.2,7115.9-1920.7,7152.4-1936z M7593.2-1936c42.2-19.2,78.6-53.7,105.4-105.4c23-46,53.7-78.6,70.9-78.6c19.2,0,65.2,32.6,105.4,70.9l72.8,70.9v-151.4V-2281l-72.8,70.9c-80.5,78.6-147.6,92-166.7,32.6c-5.8-19.2-38.3-59.4-69-86.3c-49.8-40.2-78.6-47.9-180.2-47.9h-122.7l28.8,53.7c34.5,69,34.5,220.4-1.9,291.3l-30.7,57.5h97.7C7483.9-1909.2,7556.8-1920.7,7593.2-1936z"/><path d="M1850.9-2361.5c-55.6-61.3-180.2-120.7-249.2-122.7c-28.8,0-55.6-13.4-63.2-28.8c-38.3-101.6,115-118.8,283.7-28.8l107.3,55.6l69-46c132.2-90.1,369.9-92,504.1-3.8l78.6,51.7l78.6-51.7c134.2-88.2,371.8-86.3,504.1,3.8l69,46l107.3-55.6c168.7-90.1,322-72.8,283.7,28.8c-7.7,15.3-34.5,28.8-63.3,28.8c-69,1.9-193.6,61.3-249.2,122.7c-26.8,26.8-55.6,49.8-65.2,49.8c-9.6,0-51.8-28.8-92-65.2c-65.2-59.4-172.5-107.3-245.3-107.3c-67.1,0-184,51.8-247.2,109.3c-38.3,34.5-74.8,63.2-80.5,63.2c-5.7,0-42.2-28.8-80.5-63.2c-63.3-57.5-180.2-109.3-247.3-109.3c-72.8,0-180.2,47.9-245.3,107.3c-40.3,36.4-82.4,65.2-92,65.2C1906.4-2311.7,1877.7-2334.7,1850.9-2361.5z"/><path d="M5178.2-2944.2c-51.7-53.7-103.5-76.7-245.3-105.4c-46-9.6-53.7-19.2-47.9-63.3c5.8-47.9,11.5-51.7,95.8-49.8c57.5,0,122.7,19.2,187.8,51.8l99.7,51.8l88.2-53.7c76.7-44.1,111.2-51.7,233.8-51.7c122.7,0,157.2,7.7,235.8,53.7l90.1,53.7l92-53.7c76.7-46,111.2-53.7,233.8-53.7s157.2,7.7,233.8,53.7l92,53.7l86.3-51.7c61.3-34.5,116.9-51.7,187.8-53.7c95.8-1.9,99.7,0,105.4,49.8c5.8,44.1-1.9,53.7-47.9,63.3c-141.8,28.8-193.6,51.7-245.3,105.4c-67.1,70.9-103.5,72.8-164.8,7.7c-59.4-65.2-149.5-103.5-247.3-103.5s-187.8,38.3-247.3,103.5c-26.8,26.8-61.3,49.8-78.6,49.8c-17.3,0-51.8-23-78.6-49.8c-59.4-65.2-149.5-103.5-247.2-103.5c-97.8,0-187.8,38.3-247.3,103.5C5281.7-2871.4,5245.3-2873.3,5178.2-2944.2z"/></g></g>
</svg>