<?xml version="1.0" encoding="utf-8"?>
<!-- Generator: Adobe Illustrator 18.0.0, SVG Export Plug-In . SVG Version: 6.00 Build 0)  -->
<!DOCTYPE svg PUBLIC "-//W3C//DTD SVG 1.1//EN" "http://www.w3.org/Graphics/SVG/1.1/DTD/svg11.dtd">
<svg version="1.1" id="Слой_2" xmlns="http://www.w3.org/2000/svg" xmlns:xlink="http://www.w3.org/1999/xlink" x="0px" y="0px"
	 viewBox="406 -11 775 1223" enable-background="new 406 -11 775 1223" xml:space="preserve">
<path fill="#000000"    d="M1157.8,788.7c-2.9-1.9-3.3-4.1-4.7-7
	c-0.9-1.9-2.8-5.1-4.3-6.5c-2.1-1.9-5.3-0.2-6.2-3.4c-0.8-3,1.8-4.5-0.4-7.6c-1.8-2.5-3.8-4.7-5.4-7.4c-1.3-2.2-2.8-4.4-4.6-6.3
	c-1.8-1.8-5-2.1-5.6-4.9c-3-0.8-3.9,2.6-5.9,4c-2,1.5-6.4,0.3-7.4,3c-0.7,1.7,0.8,1.6,1.2,3c0.5,1.5-0.3,3-0.8,4.3
	c-1.2,2.7-3.6,5.3-4.6,8.1c-1.5,4,1.3,6,4,8.4c1.4,1.2,2.1,0.8,1.1,2.6c-0.9,1.6-2.8,1.6-4.4,1.5c-3.5-0.2-6.3-2-9.6-2.4
	c-3.2-0.4-6.8,0-10,0c-4.1,0-5.7,0.8-8.9,3.1c-2.3,1.7-5.5,3.6-8,1.7c-1.9-1.4-2.6-4.3-4.7-5.7c-2.4-1.7-5.8-1.2-8.5-0.2
	c-2.6,1-5.2,2.7-7.8,3.4c-3,0.9-6.4,0-9.6,0.5c-1.2,0.2-2.9,1.4-4,1.2c-1-0.1-2.5-1.4-3.6-1.7c-3-0.8-6,0.2-8.8-1.7
	c-2.4-1.7-3.7-3.3-6.9-3.1c-3.1,0.2-4.9,1.6-7.2,3.6c-2.5,2.2-2.8,3.8-3.5,6.9c-0.8,3.4-1.6,5.8-5,6.7c-3.2,0.8-5.8,0.1-8.7-0.8
	c-2.9-0.9-5.6-1.3-8.9-1.6c-3-0.2-5.7-1.2-8.4-1.9c-3-0.8-6.5-0.5-9.4-1.1c-3.2-0.6-3.8-0.1-6.4,1.8c-2.1,1.6-4.5,2.4-6.5,4
	c-4.5,3.5-2.3,10.1-2.8,15.3c-2.2,0.6-5.7-1.1-7.1-2.9c-0.8-1-0.8-2.1-1.8-3c-0.9-0.9-2.7-1.1-3.8-1.8c-2.1-1.3-4.4-3.1-6.2-4.6
	c-2.4-2-2.9-4.4-3.6-7.3c-0.8-3.2-1.8-6.6-3-9.6c-0.5-1.3-1-2.5-1.6-3.7c-0.6-1.1-2.1-2.6-2.4-3.6c-1.1-2.9,1.6-6.4,1.4-9.5
	c-0.2-2.7-1.4-5.7-2.7-8.1c-3.3-5.8-6.1-12.8-12-16.6c-1.5-1-3.2-1.9-4.8-2.8c-2-1.1-2.5-1.6-4.4-0.6c-3.5,1.8-6.6,3.4-10.2,4.6
	c-0.5-3.3,1.2-4.7-2-7.2c-2.4-1.9-5.4-2.9-8.1-4.3c-5.2-2.9-6.2-8-7.2-13.3c-0.9-4.6,2.3-2.5,4.7-4.9c1.6-1.7,2.3-6.1,2.5-8.4
	c0.5-6.1-4.5-9.8-8.4-13.7c-1.2-1.2-2.3-2.1-2.1-4c-2.8-0.6-6-1.7-7.2-4.9v-3.6c-1-0.8-1.1-2.7-1.7-3.9c-0.9-1.7-2.2-3.8-3.6-5.2
	c-1.9-1.8-3.4-3.7-5.2-5.6c-2.1-2.3-3.5-4-4.3-6.9s-2.6-5.4-3.7-8.4c-1-2.8-0.5-6.2-1.4-9c-0.9-2.6-2.7-4.5-2.5-7.6
	c0.1-3,1-5.9,0.8-9.2c-0.2-4.1-1.9-3.8-5.2-5.3c-0.7-0.3-1.2-0.6-2-0.8c-0.6-6.6,4-12.8-4-15.7c-3.3-1.2-5-2.5-6.6-5.5
	c-1.4-2.6-2.8-5.6-5-7.6c-6.1-5.8-8.1,6-10.4,9.3c-2.2,3.1-5.8,5-8.2,8c-1.9,2.4-3.2,5.3-5.7,7.1c-2.9,2-5.2,0.4-8.3,1.3
	c-2.8,0.9-2.5,3.5-3.6,5.6s-2.8,4.1-4.4,5.7c-2.5,2.5-4.6,4.4-6.8,1.1c-2.7-4.1-7.4-6.4-11.1-10c-4.8-4.7-8.7-5.2-15.1-5.8
	c-0.3-1.4,0.7-2.6,1.3-3.9c0.8-1.7,0.7-2.4,0.7-4.1c-0.1-3.5,1.5-5.5,3.5-8.2c1.7-2.2,3.3-6.2,2.1-9.1c-1-2.6-4.5-3.3-5.3-6.4
	c-1.2-4.8,3.3-15.5,8.5-16.6c3.1-0.7,5.8,0.7,8.8-1.6c2.9-2.3,0.7-4.1-0.4-6.7c-1.2-2.7-2.5-5.5-2.7-8.4c-0.1-1.6,0.4-3.4-0.3-4.8
	c-0.5-1-4-5.8-4.7-6.6c-4.8-5.4,4.6-7,0.1-15.3c-1.5-2.8-4.8-1-6.2-3.8c-1.6-3.2,0.7-5.3,3.5-5.9c6.1-1.3,5.4-11.5,1.7-15.4
	c-0.8-0.9-1.9-1.4-2.8-2.2c2.4-0.9,5.2-0.4,7.1-2.1c2.3-2.1,2-6.8,2.7-9.6c0.7-2.6,0.6-5.4,1.4-7.9c1-3,2.2-5.4,2.7-8.5
	c0.2-1.2,0.8-2.7,0.4-4c-0.4-1.3-1.6-2.2-1.9-3.6c-0.6-2.5,0.4-5.8,2.8-7.1c1.3-0.8,2.5-0.3,3.4-1.8c0.9-1.4,0.4-3.2,0.5-4.7
	c0.2-2.9,1.1-5.7,1.6-8.4l0.4-2c0.8-3.1,0.9-7.8-2.4-9.6c-2.8-1.5-5.3,0.8-8,1.5c-2.7,0.8-5.7,2.1-8.5,2.8c-3.2,0.8-6.6,0.3-9.7,0
	c-3.3-0.3-6,0.2-7.7-3.1c-1.7-3.1,1.1-6.1-0.4-9.3c-1.2-2.5-3.7-4.8-6.2-4c-2.8,0.9-5,3.7-8.1,3.9c-0.6,0-1,0.2-1.5,0.4
	c0-0.2-0.1-0.5-0.1-0.7c-0.7,0-1.2-0.5-1.9-0.5c-0.9-3.5,2.3-5.9-1.3-9.1c-1.8-1.6-4.3-2.8-6.4-4.2c-2.2-1.4-5.6-3.2-7.2-5.2
	c-1.4-1.9-2.5-4.9-3.3-7.1c-1.1-3.1-0.5-6.6-1.7-9.6c-0.9-2.3-3.2-3.9-5-5.4c-2.3-1.8-4.5-3.3-7-5c-2.5-1.8-2.7-4.5-4.1-6.9
	c-3.4-5.8-6.6-10.7-11.2-15.8c-4.1-4.6-6.8-9.5-11-13.9c-3.9-4.1-6.2-10.5-11.6-12.4c-5.7-2.1-12.9-2.8-18.1-6.4
	c-2.2-1.6-4.4-4.1-5.5-6.5c-1.5-3.3-0.8-5.3-4.5-7.1c-2.9-1.5-5-2.5-7.5-4.6c-2.2-1.8-5.8-3.8-6.7-6.7c-1.4-4.8,3.9-3.4,5.7-6
	c1.7-2.6-3.5-4.9-4.8-6.7c-1.7-2.3-4.8-6-5.2-8.9c-0.6-3.7,5-4.1,6.9-7.3c2-3.3,0-4.7-1.8-7.7c-1.8-2.9-1.9-5.3-2.1-8.7
	c-0.3-4.4-2.8-4.3-5.6-6.8c-1.3-1.1-1.6-2.4-2.4-3.6c-1.4-2.2-2.1-1-3.9-2.1c-5.2-3-4.1-11-8.5-14.4c-2.5-1.9-3.6-2.9-5.2-5.6
	c-1.5-2.7-3.1-5.4-4.7-8.1c-2.7-4.3-4-10.1-8.5-12.8V2H448v462l-0.4,1.9c-6.8,5-0.1,7.9,3.1,12.2c3.2,4.4,4.6,10.6,6,15.7
	c1.7,6.4,6,7.4,3.8,13.8c-0.7,2.2-3.2,3.9-3.8,5.8c-1.5,4.7-0.7,2.2,0.8,6c3.9,10,9.4,20.5,14.4,29.8c2.1,3.9,5.9,10.4,10.1,12.5
	c1.8,0.9,4.3-0.1,6.8,1.2c2.1,1.1,3.2,4.1,5.2,5.3c6.9,3.8,7.8,1.8,11.3,9.6c2.1,4.8,3.5,9.7,6.4,14.4c3.8,6.1,3.8,6,1,13.5
	c-1.9,5.2-3.7,11.1-5.6,16.1c-3.8,10.3-11.8,19.9-15.1,30.7c-3.4,11-5.9,23.6-10.8,34.2c-2.3,4.9-5.5,8.6-7.9,13.9
	c-2.5,5.4-1.6,7.7-1.8,13c-0.3,9.2-8,19.2-14.1,26.3c-6,7.1-13.1,11.4-16.9,21.1c-1.9,4.9-3.1,10.9-5,15.9
	c-1.8,4.6-5.9,8.2-7.4,12.7c-0.9,0-2,0.3-3,0.3c-0.8,6.3,1.5,10.5-2.2,16.2c8.9,5.2-1.6,21,10.6,21.8l4.3-1.1c3-2.7,4.9,2.2,6.5,3.5
	c3.1,2.6,5.4-1.5,8.8-1.1c5,0.5,2.4,4.6,3.3,7.3c0.9,2.5,5.3,1.8,6.9,4.7c3.1,6-3.2,10.3-6.2,14.4c-2.2,3.1-1.7,4.2-0.3,7.3
	c1.3,2.8,1.9,5.6,1.6,8.8c-0.2,2.4-1.2,4.6-2,6.8c-0.9,2.8-0.6,5.6-1.3,8.4c-0.5,2.1-2.3,3.1-4,4.4c-0.8,0.6-1.3,1.2-1.7,1.7h-0.2
	v0.4c-0.6,1-0.7,2.2-0.8,4c-0.2,3.4,0,6.9,0.8,10.3V1197h713.9V926.9l0.8-136.3C1163.9,794.3,1159.3,789.7,1157.8,788.7z"/>
</svg>
