<svg xmlns="http://www.w3.org/2000/svg" xmlns:xlink="http://www.w3.org/1999/xlink" version="1.1" x="0px" y="0px" viewBox="0 0 50.4 63" enable-background="new 0 0 50.4 50.4" xml:space="preserve"><g><path d="M36.07,4.201c0,2.253-1.824,4.081-4.08,4.081c-2.253,0-4.078-1.827-4.078-4.081c0-2.253,1.825-4.08,4.078-4.08   C34.246,0.121,36.07,1.948,36.07,4.201z"/><path d="M22.404,7.265c0.025-2.179-1.723-3.966-3.904-3.991c-1.925-0.022-3.542,1.338-3.912,3.158l-4.001,15.644   c-0.048,0.18-0.067,0.36-0.074,0.538c-0.008,0.099-0.017,0.197-0.018,0.295c-0.023,2.182,1.725,3.969,3.906,3.995   c1.629,0.016,3.229-1.076,3.651-2.357c0.101-0.278,4.213-16.27,4.224-16.329C22.354,7.911,22.401,7.595,22.404,7.265z"/><path d="M40.625,21.374l-6.653-2.37l-2.985-8.194c-0.741-1.432-1.934-2.428-3.34-2.687c-3.299-0.616-4.451,3.15-4.451,3.15   L20.74,21.593l6.97-4.065l-0.633-1.368c-0.138-0.298-0.008-0.651,0.29-0.786c0.296-0.14,0.649-0.01,0.787,0.289l0.832,1.794   c0.001,0.005,0.005,0.008,0.007,0.01c0.007,0.01,0.006,0.019,0.01,0.029l1.606,3.463l0.161,0.328   c0.094,0.185,0.434,0.532,0.749,0.661l6.461,2.465l-4.126,7.094l-5.41-5.08l1.083-4.975l-1.316-2.842l-7.852,4.58L17.32,35.946   l-6.431,10.062c-0.238,0.335-0.358,0.734-0.358,1.211c-0.095,0.806,0.12,1.505,0.641,2.103c0.521,0.592,1.188,0.935,1.994,1.032   c1.187,0.092,2.089-0.383,2.705-1.427l6.861-10.767c0.142-0.288,0.331-0.688,0.571-1.217l1.364-5.746l6.341,5.201l-7.496,12.885   c-0.206,0.354-0.085,0.809,0.269,1.016c0.118,0.069,0.246,0.102,0.373,0.102c0.255,0,0.504-0.134,0.642-0.37l6.404-11.01   l-0.009,8.728c0.287,1.378,1.165,2.138,2.637,2.282c0.806,0.047,1.506-0.189,2.1-0.712c0.592-0.527,0.912-1.166,0.959-1.923   c0-0.146,0-0.355,0-0.643l-0.054-10.887c0-0.86-0.199-1.718-0.745-2.263l-1.12-1.056l4.464-7.679   c1.186,0.071,2.038-0.604,2.21-1.775C41.757,22.32,41.241,21.605,40.625,21.374z"/></g><text x="0" y="65.4" fill="#000000" font-size="5px" font-weight="bold" font-family="'Helvetica Neue', Helvetica, Arial-Unicode, Arial, Sans-serif">Created by Luis Prado</text><text x="0" y="70.4" fill="#000000" font-size="5px" font-weight="bold" font-family="'Helvetica Neue', Helvetica, Arial-Unicode, Arial, Sans-serif">from the Noun Project</text></svg>