<svg xmlns="http://www.w3.org/2000/svg" xmlns:xlink="http://www.w3.org/1999/xlink" version="1.1" x="0px" y="0px" viewBox="0 0 100 125" enable-background="new 0 0 100 100" xml:space="preserve"><g><path d="M86.52,52.21c-0.409-1.26-1.56-2.19-2.939-2.28v-3.84c2.49-0.45,4.39-2.64,4.39-5.27C87.97,19.88,70.94,2.85,50,2.85   c-20.94,0-37.98,17.03-37.98,37.97c0,2.63,1.9,4.82,4.4,5.27v3.82c-1.38,0.09-2.53,1.02-2.94,2.28C9.91,53.74,7.55,57.3,7.55,61.22   s2.36,7.48,5.93,9.03c0.43,1.33,1.68,2.29,3.15,2.29h1.51c1.83,0,3.31-1.49,3.31-3.31V53.21c0-1.76-1.37-3.19-3.09-3.3v-3.82   c2.49-0.46,4.39-2.65,4.39-5.27c0-15.03,12.22-27.25,27.25-27.25c15.03,0,27.25,12.22,27.25,27.25c0,2.62,1.9,4.81,4.39,5.27v3.84   c-1.72,0.11-3.09,1.55-3.09,3.3v16.02c0,1.83,1.49,3.31,3.311,3.31h0.54v8.86L66,87.73c-1.09-1.881-3.12-3.15-5.44-3.15   c-3.47,0-6.29,2.82-6.29,6.28c0,3.47,2.82,6.29,6.29,6.29c3.46,0,6.28-2.82,6.28-6.29c0-0.45-0.05-0.891-0.14-1.32l17.02-6.55   c0.011,0,0.011-0.01,0.021-0.01c0.029-0.011,0.06-0.03,0.09-0.051c0.03-0.01,0.05-0.02,0.08-0.04c0.02-0.01,0.04-0.029,0.06-0.05   c0.03-0.02,0.061-0.04,0.09-0.07c0.011-0.01,0.021-0.029,0.04-0.05c0.021-0.029,0.051-0.06,0.07-0.09   c0.021-0.02,0.03-0.04,0.04-0.06c0.021-0.03,0.04-0.07,0.05-0.101c0.01-0.02,0.021-0.05,0.03-0.069c0.01-0.03,0.02-0.07,0.03-0.11   c0.01-0.021,0.01-0.04,0.01-0.06c0.01-0.04,0.01-0.091,0.01-0.141c0,0,0,0,0-0.01v-9.66c1.04-0.32,1.851-1.13,2.18-2.15   c3.57-1.55,5.931-5.109,5.931-9.029S90.09,53.76,86.52,52.21z M13.32,67.99c-2.34-1.41-3.83-3.98-3.83-6.771s1.49-5.359,3.83-6.77   V67.99z M86.68,68.01V54.48c2.34,1.399,3.83,3.97,3.83,6.76C90.51,64.04,89.02,66.6,86.68,68.01z"/><path d="M57.83,72.56l8.93,6.391V73.35c0-0.54,0.44-0.97,0.98-0.97h3.47c0.771,0,1.4-0.63,1.4-1.399V41.31c0-0.77-0.63-1.4-1.4-1.4   h-0.18l0.399,2.29c0.28,1.59-0.779,3.11-2.37,3.39l-1.529,0.27c-0.07,0.64-0.181,1.28-0.33,1.91l1.34,0.77   c1.39,0.81,1.88,2.6,1.07,4l-2.15,3.72c-0.39,0.67-1.02,1.15-1.77,1.36c-0.261,0.06-0.511,0.1-0.771,0.1c-0.5,0-1-0.14-1.45-0.39   l-1.35-0.78c-0.47,0.44-0.96,0.86-1.48,1.25l0.53,1.45c0.271,0.74,0.23,1.53-0.1,2.24s-0.91,1.25-1.65,1.51l-4.03,1.47   c-0.33,0.12-0.659,0.181-1,0.181c-0.42,0-0.84-0.091-1.239-0.28c-0.71-0.33-1.24-0.91-1.511-1.65l-0.529-1.45   c-0.32,0.011-0.65,0.021-0.97,0.021c-0.32,0-0.64-0.01-0.97-0.021l-0.53,1.461c-0.26,0.729-0.8,1.31-1.51,1.64   c-0.39,0.189-0.81,0.28-1.24,0.28c-0.33,0-0.67-0.061-0.99-0.181L40.86,63c-0.73-0.26-1.32-0.8-1.65-1.51s-0.37-1.5-0.1-2.24   l0.53-1.45c-0.51-0.39-1.01-0.81-1.48-1.25l-1.34,0.78c-0.45,0.26-0.95,0.39-1.46,0.39c-0.25,0-0.51-0.04-0.76-0.1   c-0.76-0.21-1.39-0.69-1.78-1.37l-2.15-3.71c-0.8-1.4-0.32-3.19,1.07-4l1.34-0.77c-0.14-0.63-0.25-1.27-0.33-1.91l-1.53-0.27   c-0.76-0.14-1.43-0.56-1.88-1.2c-0.45-0.64-0.62-1.42-0.49-2.19l0.41-2.29h-0.19c-0.77,0-1.4,0.63-1.4,1.4v29.67   c0,0.77,0.63,1.399,1.4,1.399h28.2C57.47,72.38,57.67,72.44,57.83,72.56z"/><path d="M50.14,51.96c4.62,0,8.37-3.76,8.37-8.37c0-1.28-0.29-2.54-0.85-3.68H42.62c-0.55,1.14-0.85,2.4-0.85,3.68   C41.77,48.2,45.53,51.96,50.14,51.96z"/><path d="M31.22,39.91l-0.46,2.63c-0.05,0.26,0.01,0.52,0.16,0.73c0.16,0.22,0.38,0.36,0.64,0.41l2.25,0.4   c0.02,0,0.04,0.01,0.06,0.01c0.03,0.01,0.07,0.02,0.1,0.03c0.03,0.01,0.06,0.03,0.08,0.04c0.03,0.01,0.06,0.03,0.09,0.04   c0.03,0.02,0.05,0.04,0.07,0.05c0.03,0.02,0.06,0.04,0.08,0.07c0.02,0.01,0.04,0.04,0.06,0.06s0.05,0.05,0.07,0.08   c0.01,0.02,0.02,0.04,0.04,0.06c0.02,0.03,0.04,0.06,0.05,0.1c0.01,0.02,0.02,0.05,0.03,0.07c0.02,0.04,0.03,0.07,0.04,0.1   c0,0.03,0.01,0.06,0.01,0.09c0.01,0.03,0.01,0.05,0.02,0.08c0.07,1.03,0.25,2.04,0.52,3.02c0.01,0.02,0.01,0.04,0.02,0.06   c0,0.04,0.01,0.07,0.01,0.11c0.01,0.03,0.01,0.06,0.01,0.09c0,0.03,0,0.06-0.01,0.09c0,0.04-0.01,0.07-0.01,0.1   c-0.01,0.03-0.01,0.06-0.02,0.09c-0.01,0.03-0.02,0.06-0.04,0.08c-0.01,0.03-0.02,0.06-0.03,0.09c-0.02,0.03-0.03,0.05-0.05,0.08   c-0.02,0.02-0.03,0.05-0.05,0.08c-0.03,0.02-0.05,0.04-0.07,0.07l-0.06,0.06c-0.03,0.02-0.06,0.04-0.09,0.06   c-0.02,0.01-0.03,0.03-0.05,0.04l-1.98,1.14c-0.47,0.27-0.63,0.87-0.36,1.35l2.15,3.72c0.13,0.22,0.34,0.38,0.6,0.45   c0.25,0.069,0.52,0.04,0.74-0.09l1.98-1.15c0.02-0.01,0.05-0.02,0.07-0.03c0.03-0.01,0.05-0.02,0.08-0.04   c0.04-0.01,0.07-0.02,0.11-0.02c0.02-0.01,0.05-0.021,0.07-0.021c0.04-0.01,0.08-0.01,0.11-0.01h0.08c0.04,0,0.07,0,0.1,0.01   c0.03,0,0.06,0.011,0.09,0.011c0.03,0.01,0.06,0.02,0.09,0.029c0.03,0.011,0.06,0.021,0.08,0.03c0.04,0.021,0.07,0.03,0.1,0.05   c0.02,0.021,0.04,0.03,0.06,0.04c0.04,0.03,0.07,0.05,0.1,0.08c0.01,0.01,0.03,0.021,0.04,0.04c0.72,0.73,1.51,1.39,2.35,1.97   c0.02,0.011,0.03,0.021,0.05,0.04c0.03,0.021,0.05,0.04,0.08,0.07c0.02,0.02,0.04,0.04,0.06,0.06c0.02,0.03,0.04,0.051,0.06,0.08   c0.02,0.03,0.03,0.051,0.05,0.08c0.01,0.03,0.03,0.05,0.04,0.08c0.01,0.03,0.02,0.061,0.03,0.09c0.01,0.03,0.02,0.061,0.03,0.091   c0,0.029,0.01,0.06,0.01,0.09c0,0.029,0.01,0.06,0.01,0.1c0,0.03,0,0.061-0.01,0.09c0,0.03,0,0.061-0.01,0.09   c0,0.04-0.01,0.07-0.02,0.11c-0.01,0.021-0.01,0.04-0.02,0.06l-0.78,2.15c-0.09,0.24-0.08,0.51,0.04,0.75   c0.11,0.24,0.3,0.42,0.55,0.51l4.04,1.471c0.24,0.09,0.51,0.069,0.75-0.04c0.24-0.11,0.42-0.311,0.51-0.551l0.78-2.149   c0-0.021,0.02-0.03,0.02-0.05c0.02-0.04,0.04-0.07,0.05-0.11c0.02-0.02,0.03-0.04,0.05-0.06c0.02-0.03,0.04-0.061,0.06-0.091   c0.02-0.02,0.04-0.04,0.06-0.06c0.03-0.021,0.05-0.04,0.08-0.06c0.02-0.021,0.05-0.04,0.07-0.051c0.03-0.02,0.06-0.04,0.09-0.05   c0.02-0.02,0.05-0.03,0.08-0.04c0.03-0.01,0.06-0.02,0.09-0.03c0.03-0.01,0.06-0.01,0.09-0.02c0.03,0,0.06-0.01,0.09-0.01   c0.04-0.011,0.07,0,0.11,0c0.02,0,0.04-0.011,0.06,0c1.01,0.1,2.07,0.1,3.07,0c0.021-0.011,0.05,0,0.07,0c0.04,0,0.069-0.011,0.1,0   c0.03,0,0.061,0.01,0.09,0.01c0.03,0.01,0.07,0.01,0.101,0.02c0.029,0.011,0.06,0.021,0.08,0.03c0.029,0.01,0.06,0.021,0.1,0.04   c0.021,0.01,0.04,0.03,0.07,0.04c0.029,0.021,0.05,0.04,0.08,0.061c0.02,0.02,0.04,0.029,0.06,0.05   c0.03,0.029,0.061,0.05,0.08,0.08c0.02,0.02,0.03,0.04,0.05,0.06c0.021,0.03,0.04,0.061,0.061,0.09c0.01,0.03,0.02,0.061,0.04,0.08   c0.01,0.021,0.02,0.05,0.029,0.07l0.78,2.149c0.09,0.24,0.271,0.44,0.51,0.551c0.24,0.109,0.511,0.13,0.75,0.04l4.04-1.471   c0.24-0.09,0.44-0.27,0.55-0.51c0.11-0.24,0.12-0.51,0.03-0.75l-0.77-2.15c-0.011-0.02-0.011-0.039-0.021-0.06   c-0.01-0.04-0.02-0.07-0.03-0.11c0-0.029-0.01-0.06-0.01-0.09v-0.09c0-0.04,0-0.07,0.01-0.1c0-0.03,0-0.061,0.011-0.09l0.029-0.091   c0.011-0.029,0.011-0.06,0.03-0.09c0.01-0.03,0.021-0.05,0.04-0.08c0.01-0.029,0.03-0.06,0.05-0.08   c0.021-0.029,0.04-0.05,0.061-0.08l0.06-0.06c0.021-0.03,0.05-0.05,0.08-0.07c0.021-0.02,0.03-0.029,0.05-0.05   c0.84-0.57,1.63-1.229,2.351-1.97c0.02-0.01,0.029-0.021,0.05-0.04c0.02-0.021,0.05-0.04,0.08-0.061c0.03-0.02,0.05-0.04,0.08-0.06   c0.029-0.01,0.05-0.03,0.08-0.04c0.029-0.01,0.06-0.02,0.1-0.03c0.021-0.01,0.05-0.02,0.08-0.029c0.03-0.011,0.06-0.011,0.09-0.021   h0.09c0.03-0.01,0.07,0,0.101,0c0.029,0,0.06,0,0.09,0.01c0.03,0,0.06,0.011,0.1,0.021c0.03,0,0.05,0.01,0.08,0.02   c0.04,0.011,0.07,0.03,0.101,0.051c0.02,0.01,0.04,0.01,0.06,0.02l1.98,1.14c0.229,0.13,0.489,0.17,0.739,0.101   c0.261-0.07,0.471-0.23,0.601-0.46l2.149-3.721c0.271-0.47,0.11-1.069-0.359-1.339l-1.98-1.14c-0.01-0.01-0.03-0.03-0.05-0.04   c-0.03-0.02-0.06-0.04-0.09-0.06c-0.021-0.02-0.04-0.04-0.061-0.07c-0.02-0.02-0.04-0.04-0.06-0.07   c-0.03-0.02-0.04-0.05-0.061-0.08c-0.02-0.02-0.029-0.05-0.05-0.07c-0.01-0.03-0.02-0.06-0.04-0.09   c-0.01-0.03-0.02-0.05-0.029-0.08c0-0.03-0.011-0.06-0.021-0.09c-0.01-0.03-0.01-0.07-0.02-0.1v-0.18   c0.01-0.04,0.02-0.07,0.02-0.11c0.01-0.02,0.01-0.04,0.021-0.06c0.27-0.98,0.449-2,0.52-3.02c0.01-0.03,0.01-0.05,0.021-0.07   c0-0.04,0-0.07,0.02-0.1c0-0.03,0.01-0.06,0.03-0.1c0.01-0.02,0.01-0.05,0.029-0.08c0.011-0.03,0.03-0.06,0.051-0.09   c0.01-0.02,0.02-0.04,0.04-0.06c0.02-0.03,0.05-0.06,0.069-0.09c0.021-0.02,0.04-0.04,0.061-0.05c0.02-0.03,0.05-0.05,0.08-0.07   c0.02-0.01,0.04-0.03,0.069-0.05c0.021-0.02,0.061-0.03,0.091-0.04c0.02-0.02,0.05-0.03,0.079-0.04   c0.03-0.01,0.061-0.02,0.101-0.03c0.02,0,0.04-0.01,0.07-0.02l2.25-0.39c0.529-0.1,0.89-0.61,0.789-1.14l-0.46-2.63h-9.29   c0.44,1.17,0.681,2.42,0.681,3.68c0,5.68-4.63,10.311-10.31,10.311S39.83,49.27,39.83,43.59c0-1.26,0.23-2.51,0.68-3.68H31.22z"/></g><text x="0" y="115" fill="#000000" font-size="5px" font-weight="bold" font-family="'Helvetica Neue', Helvetica, Arial-Unicode, Arial, Sans-serif">Created by Cuby Design</text><text x="0" y="120" fill="#000000" font-size="5px" font-weight="bold" font-family="'Helvetica Neue', Helvetica, Arial-Unicode, Arial, Sans-serif">from the Noun Project</text></svg>