<svg xmlns="http://www.w3.org/2000/svg" xmlns:xlink="http://www.w3.org/1999/xlink" version="1.1" x="0px" y="0px" viewBox="0 0 841.9 1488.25" enable-background="new 0 0 841.9 1190.6" xml:space="preserve"><g><path d="M841.5,696.5V299.7c0-30.5-24.7-55.1-55.1-55.1l-731.3,0.1C24.6,244.7,0,269.4,0,299.8v487.6c0.5,13,6.1,24.7,14.8,33.1   c8.7,8.4,20.6,13.6,33.8,13.6H335c-0.4,11-6.5,75.7-80.4,84.8h2.4c-11.7,0-16.8,5.8-16.9,13.5c0,7.6,5.3,13.5,16.9,13.5h327   c7.4,0,13.8-5.1,13.9-13.1c0.1-10-7.5-13.1-14.2-13.9c-73.2-9.3-79-74-79.5-84.8h289.1c26.2,0,47.5-20.7,48.6-46.7L841.5,696.5z    M803.6,710.1c0,5.4-4.4,9.8-9.8,9.8H643.1l-70.7,54.8l-19.4,15v-69.9H47.7c-5.4,0-9.8-4.4-9.8-9.8V295.6c0-5.4,4.4-9.8,9.8-9.8   c0,0,55.9,0,135.6,0c31-12.8,66-19.6,102.2-19.6c25.4,0,50.2,3.3,73.8,9.9c9.8,2.7,19.2,5.9,28.3,9.7c167,0,332.8,0,332.8-0.1h73.6   c5.4,0,9.8,4.4,9.8,9.8V710.1z"/></g><g><path d="M348.7,285.8c-19.9-4.9-41.2-7.5-63.3-7.5c-22.1,0-43.4,2.7-63.4,7.5c-80.8,19.8-139.2,76.6-139.2,143.5   c0,47.8,29.7,90.4,76.1,118.1l117.8,91.4v-58.5c2.8,0.1,5.7,0.1,8.6,0.1c19.7,0,38.8-2.1,56.8-6c-0.1-0.6-0.2-1.2-0.2-1.9   c-0.7-5.3-1-10.6-1-16c0-34.8,14-67.9,40.5-95.9c25.3-26.7,60-46.8,100.5-58.1c0.9-0.2,1.7-0.5,2.6-0.7   C471.2,347.2,418.3,302.9,348.7,285.8z M301.2,507.9H264v-36.5h37.2V507.9z M337,395.9c-0.9,3.5-2.3,6.6-4,9.5   c-1.7,2.9-3.8,5.5-6.2,7.8c-2.4,2.4-5,4.6-7.8,6.6c-2.8,2.2-5.5,4.3-8.1,6.2c-2.5,1.9-4.7,3.9-6.4,5.9c-1.7,2-3.1,4.3-4.2,6.9   c-1,2.5-1.5,5.5-1.5,9v5.8h-32.5v-5.8c0-8.5,1.5-16.1,4.4-22.5c2.9-6.5,7.7-12.2,14.4-17.1c2.4-1.7,4.7-3.4,6.9-5.1   c2.2-1.7,4.2-3.4,6-5.1c1.8-1.7,3.3-3.6,4.4-5.6c1.1-2,1.7-4.2,1.7-6.5c0-4.9-2-8.6-5.9-11c-4-2.5-8.5-3.7-13.5-3.7   c-3.6,0-7,0.5-10.2,1.4c-3.2,1-6,2.2-8.7,3.7c-2.6,1.5-5,3.1-7.1,4.8c-2.1,1.7-3.9,3.2-5.3,4.6l-20.9-22.1c2.1-2.4,4.8-4.9,8.1-7.7   c3.3-2.8,7.2-5.3,11.8-7.7c4.5-2.4,9.6-4.3,15.4-5.9c5.8-1.6,12.2-2.4,19.3-2.4c7.3,0,14.1,1,20.4,3c6.3,2,11.8,4.9,16.4,8.7   c4.6,3.8,8.2,8.4,10.8,13.9c2.6,5.5,3.9,11.6,3.9,18.4C338.5,388.4,338,392.4,337,395.9z"/></g><g><g><path d="M556.5,405.5c-25,0-48.9,3.4-71,9.5c-76.9,21.4-131.6,76.7-131.6,141.6c0,4.8,0.3,9.6,0.9,14.3    c9.7,76.7,96.3,136.8,201.7,136.8c2.9,0,5.7-0.1,8.6-0.1v57.7l58.5-45.4l26.5-20.6l11.9-9.2l16.8-13    c48.8-27.6,80.3-71.3,80.3-120.5C759,473.2,668.3,405.5,556.5,405.5z M471.7,577.6c-15.7,0-28.4-12.7-28.4-28.4    c0-15.7,12.7-28.4,28.4-28.4c15.7,0,28.4,12.7,28.4,28.4C500,564.9,487.3,577.6,471.7,577.6z M556.5,577.6    c-15.7,0-28.4-12.7-28.4-28.4c0-15.7,12.7-28.4,28.4-28.4c15.7,0,28.4,12.7,28.4,28.4C584.8,564.9,572.1,577.6,556.5,577.6z     M641.2,577.6c-15.7,0-28.4-12.7-28.4-28.4c0-15.7,12.7-28.4,28.4-28.4c15.7,0,28.4,12.7,28.4,28.4    C669.6,564.9,656.9,577.6,641.2,577.6z"/></g></g><text x="0" y="1205.6" fill="#000000" font-size="5px" font-weight="bold" font-family="'Helvetica Neue', Helvetica, Arial-Unicode, Arial, Sans-serif">Created by Gilbert Bages</text><text x="0" y="1210.6" fill="#000000" font-size="5px" font-weight="bold" font-family="'Helvetica Neue', Helvetica, Arial-Unicode, Arial, Sans-serif">from the Noun Project</text></svg>