<svg xmlns="http://www.w3.org/2000/svg" xmlns:xlink="http://www.w3.org/1999/xlink" version="1.1" x="0px" y="0px" viewBox="0 0 91 113.75" enable-background="new 0 0 91 91" xml:space="preserve"><g><path d="M23.174,73.599v14.615c0,1.156,0.938,2.094,2.094,2.094s2.094-0.938,2.094-2.094V73.599c0-3.451,1.668-5.992,5.057-7.752   c2.266,2.154,5.08,3.721,8.211,4.469l-3.338,12.229c-0.221,0.805,0.061,1.664,0.713,2.186l5.602,4.475   c0.381,0.305,0.844,0.459,1.307,0.459c0.461,0,0.924-0.154,1.307-0.459l5.6-4.475c0.654-0.523,0.934-1.387,0.711-2.193   l-3.398-12.27c3.064-0.766,5.818-2.314,8.043-4.436c3.586,1.766,5.287,4.256,5.287,7.768v14.617c0,1.156,0.938,2.094,2.094,2.094   s2.094-0.938,2.094-2.094V73.599c0-3.441-1.246-7.961-6.742-11.061c1.84-2.844,2.918-6.229,2.918-9.865   c0-10.001-8.092-18.138-18.037-18.138s-18.039,8.137-18.039,18.138c0,3.65,1.086,7.045,2.936,9.893   C24.377,65.671,23.174,70.173,23.174,73.599z M44.912,84.89l-3.219-2.572l2.77-10.145h0.85l2.813,10.148L44.912,84.89z    M44.787,38.722c7.637,0,13.85,6.258,13.85,13.951c0,7.699-6.213,13.961-13.85,13.961s-13.852-6.262-13.852-13.961   C30.936,44.98,37.15,38.722,44.787,38.722z"/><path d="M24.219,29.086c0.412,0.435,0.965,0.654,1.52,0.654c0.518,0,1.035-0.19,1.439-0.574c0.84-0.795,0.877-2.121,0.082-2.96   l-6.82-7.199c-0.795-0.84-2.123-0.875-2.959-0.08c-0.84,0.795-0.877,2.121-0.08,2.96L24.219,29.086z"/><path d="M30.662,35.039c0.551,0,1.09-0.23,1.48-0.62s0.609-0.93,0.609-1.48c0-0.55-0.219-1.09-0.609-1.48   c-0.779-0.78-2.18-0.78-2.961,0c-0.389,0.39-0.619,0.93-0.619,1.48c0,0.55,0.23,1.09,0.619,1.48   C29.572,34.809,30.113,35.039,30.662,35.039z"/><path d="M44.453,31.379c0.389-0.39,0.619-0.93,0.619-1.48c0-0.55-0.23-1.09-0.619-1.48c-0.771-0.78-2.18-0.78-2.961,0   c-0.389,0.38-0.609,0.92-0.609,1.48c0,0.55,0.221,1.09,0.609,1.48c0.391,0.39,0.93,0.61,1.48,0.61   C43.533,31.989,44.072,31.769,44.453,31.379z"/><path d="M36.809,13.069c1.1-0.354,1.705-1.534,1.35-2.635c-0.408-1.268-0.627-3.036,0.65-4.265   c1.205-1.159,3.396-1.518,5.213-0.854c1.256,0.458,2.809,1.552,3.08,4.159c0.256,2.453-0.994,3.833-3.053,5.882   c-1.66,1.651-3.543,3.522-4.088,6.383c-0.217,1.136,0.529,2.232,1.664,2.449c0.133,0.025,0.266,0.038,0.395,0.038   c0.986,0,1.863-0.699,2.055-1.702c0.303-1.588,1.52-2.798,2.928-4.198c2.111-2.101,4.74-4.715,4.264-9.285   c-0.381-3.657-2.498-6.449-5.807-7.658c-3.346-1.222-7.184-0.512-9.555,1.77c-2.18,2.097-2.811,5.22-1.732,8.567   C34.527,12.818,35.701,13.425,36.809,13.069z"/><path d="M57.912,35.029c0.551,0,1.09-0.22,1.471-0.61c0.391-0.39,0.619-0.93,0.619-1.48c0-0.55-0.229-1.09-0.619-1.48   c-0.779-0.78-2.17-0.78-2.961,0c-0.389,0.39-0.609,0.93-0.609,1.48c0,0.55,0.221,1.09,0.609,1.48   C56.813,34.809,57.354,35.029,57.912,35.029z"/><path d="M61.877,27.39c0.555,0,1.109-0.219,1.52-0.654c0.727-0.767,1.914-1.023,3.291-1.319c2.178-0.469,5.162-1.111,6.828-4.424   c1.336-2.657,1.109-5.484-0.621-7.758c-1.742-2.287-4.67-3.474-7.285-2.952c-2.436,0.484-4.248,2.344-4.977,5.102   c-0.295,1.118,0.373,2.264,1.49,2.559c1.119,0.296,2.264-0.373,2.559-1.49c0.318-1.202,0.904-1.896,1.744-2.063   c1.051-0.207,2.367,0.372,3.137,1.381c0.52,0.683,0.979,1.817,0.213,3.34c-0.732,1.454-1.865,1.758-3.969,2.211   c-1.797,0.387-3.834,0.825-5.451,2.534c-0.795,0.84-0.758,2.165,0.082,2.96C60.842,27.2,61.359,27.39,61.877,27.39z"/></g><text x="0" y="106" fill="#000000" font-size="5px" font-weight="bold" font-family="'Helvetica Neue', Helvetica, Arial-Unicode, Arial, Sans-serif">Created by BomSymbols</text><text x="0" y="111" fill="#000000" font-size="5px" font-weight="bold" font-family="'Helvetica Neue', Helvetica, Arial-Unicode, Arial, Sans-serif">from the Noun Project</text></svg>