<svg xmlns="http://www.w3.org/2000/svg" xmlns:xlink="http://www.w3.org/1999/xlink" version="1.1" x="0px" y="0px" viewBox="0 0 96 120" style="enable-background:new 0 0 96 96;" xml:space="preserve"><path d="M88,71.4c-0.6-0.3-1-0.7-1.2-1c0.5-2,0.7-4.2,0.3-6.3c-1.2-7.5-7.6-13-15.2-13c-0.8,0-1.6,0.1-2.4,0.2c-1,0.2-2,0.4-3,0.8  l-5.4-10.8l7.1-1.3l-0.5-3l-2.4,0.4c-2.1-1.1-5.8-2.5-7.4-3.2c-1.6-0.8-0.8-0.9-4.5-3c1.2-2.6,3.4-4.4,5.5-6.3  c0.6-1.5-0.2-4.1,1.5-4.6c0.4-0.1,1.5-0.7,2-0.8c0.4,0.4,0.7,0.8,1.7,1c0.6-0.1,1.3-0.4,3.9-2.3c0.5-2.2,0.6-1.9,0.8-2.9  c1.4,0.3,2,0.6,3.2,0.7c0.2-0.1,0.4-0.3,0.5-0.5c-1.3-5.5-4.2-9.3-10.8-8.9c-0.9,0.9-1.9,2.1-1.8,3.6c0,0.5,0.5,0.7,0.5,1.2  c0.1,0.6-0.4,2.3-0.8,2.8c-0.4,0.5-1.7,1-2.6,0.8c-0.6-0.1-0.9-1.1-5.2-0.4c-5.8,1-8.2,7.9-15.2,13.4c-1.4,1.6-3.1,4.3-2.5,7.5  c0.4,2.2,2.1,3.6,2.7,6c0.6,2.1,3.4,8.1,3.3,9.2c0,0.3-0.3,0.7-0.7,1.2l-3.5,1.7l-5.3-7.7c1.3-0.2,2.9-0.4,4.8-0.6l0,0l0,0  c0,0,0.6-0.8,0.3-1.4c-0.2-0.3-0.5-0.5-1.1-0.5c-0.7,0-1.9,0-3.3,0c-1,0-2.1,0.1-3,0.1c-1.1,0-1.9,0-2.3-0.1c-0.2,0-0.4-0.1-0.7-0.2  c-0.5-0.2-1.2-0.4-1.7-0.4c-0.5,0-0.9,0.2-1.1,0.6c-0.6,1.2,0.6,3.5,1.5,4.4c0.1,0,0.1,0.1,0.2,0.1l0,0c0.2,0,0.5-0.1,0.9-0.3  c0.5-0.2,1.1-0.4,2-0.7l6.2,9.2l-3,4.5c-2.1-1-4.5-2-9.3-1.4C12.6,59.8,6.9,68,8.2,76.4c1.2,7.5,7.6,13,15.2,13  c0.8,0,46.2,0.2,64.6,0V71.4z M70.1,54.9c0.6-0.1,1.2-0.1,1.8-0.1c5.8,0,10.6,4.1,11.5,9.8c0.2,1.3,0.2,2.5,0,3.8  c-0.3,0-0.6,0.1-1,0.1c0.1,0.4,0.3,0.8,0.6,1.3c-0.3,1-0.7,1.9-1.2,2.7c-1-0.3-1.5-0.9-1.8-1.5c-0.5,1.3-1.1,2.7-1.1,2.7l-3.8,2.6  l-7.4,1c-3.8-1.4-6.7-4.8-7.3-9.1c-0.7-4.5,1.3-8.8,4.8-11.3l3.8,7.6c-0.5,0.7-0.7,1.6-0.5,2.5c0.3,1.7,1.7,3,3.5,3  c0.2,0,0.4,0,0.5,0c1.9-0.3,3.2-2.1,2.9-4c-0.3-1.7-1.7-2.9-3.4-3l-3.7-7.5C68.8,55.2,69.4,55,70.1,54.9z M39.3,69.9  C39.2,69.8,39.2,69.8,39.3,69.9c-0.6-0.6-1.1-1-1.5-1.5c-0.4-0.9-0.8-1.8-1.3-2.6c0.5-0.8,1.4-2.4,1.8-3l3.7,5.4  c-0.2,0.4-0.3,0.9-0.4,1.4L39.3,69.9z M26.7,71.8l4.4-6.5c0.5,0.4,0.9,0.8,1.3,1.3C31.7,67.3,31,68.3,31,69c0.1,0.1,1.4,0.8,3,1.7  L26.7,71.8z M48.1,51.5c-0.5,1.7-1.7,3.5-1.8,5.5c-0.1,2.4-0.3,6-0.8,8.3c-0.4,0.1-0.8,0.2-1.2,0.4l-4.1-6c1.7-2.6,3.7-5.2,5.2-7  L48.1,51.5z M49.1,64c0.9-3.4,1.7-6.3,3-9.2c1-2.2,2.2-4.2,2-4.8c-0.1-0.4-0.2-0.7-0.4-1.1l5.3-2.5L49.1,64z M48,31.6  c-0.5,1.5,0.7,2,4.6,4.7c4.7,1.8,2.5,0.9,6.1,2.3L56,38.9l2.3,4l-5.7,2.7c-1.4-3.5-3.3-7.5-7.2-11.5C47.2,32.5,47.3,31.9,48,31.6z   M45.6,47.4c0.3,0.1,0.6,0.4,1.1,1l-0.9,0.4C45.6,48,45.6,47.7,45.6,47.4z M35.2,59c-0.4,1.3-0.9,2.6-1.2,3.8  c-0.3-0.3-0.6-0.5-0.8-0.7L35.2,59z M23.4,85.7c-5.8,0-10.6-4.1-11.5-9.8c-1-6.3,3.4-12.2,9.7-13.3c3.2-0.5,5.2,0.2,6.6,0.9  l-4.8,7.1c0,0,0,0-0.1,0c-0.2,0-0.4,0-0.5,0c-1.9,0.3-3.2,2.1-2.9,4c0.3,1.7,1.7,3,3.5,3c0.2,0,0.4,0,0.5,0c1.3-0.2,2.4-1.1,2.8-2.3  l8.3-1.3c0,2.5-0.7,4.9-2.2,7C31,83.4,28.3,85.7,23.4,85.7z M46.2,79.9c-1.5,0.1-0.3,1.5-0.7,2.2c-3.7,0.4-8.5,1.3-8.5,0.7  c-0.5,0.3-1,0.6-1.6,0.9c2.5-2.6,3.5-6.8,3.3-10.3l0.1,0c0.8,0.5,1.4,0.8,1.4,0.8s0.7-0.7,0.7-1.1c0,0,0,0,0,0l0.9-0.1  c0.9,1.7,2.6,2.8,4.6,2.8c2.4,0,3.4-1,4.3-2.2c0.4-0.6,0.7-1.2,0.9-1.9c0.6-0.1,2.4-0.2,2.4-0.2c0.1-0.5-0.5-1.9-2.4-2.2  c-0.1-0.6-0.4-1.2-0.7-1.7l10.3-18.4l2.2,4.5c-4.9,3.2-7.8,9.1-6.8,15.3c0.7,4.3,3.1,8,6.5,10.3c-1.1,0.6-2.4,1.2-3.8,1.6  C55.1,80.4,50.9,80.1,46.2,79.9z"/><text x="0" y="111" fill="#000000" font-size="5px" font-weight="bold" font-family="'Helvetica Neue', Helvetica, Arial-Unicode, Arial, Sans-serif">Created by Sewon Park</text><text x="0" y="116" fill="#000000" font-size="5px" font-weight="bold" font-family="'Helvetica Neue', Helvetica, Arial-Unicode, Arial, Sans-serif">from the Noun Project</text></svg>