<svg xmlns="http://www.w3.org/2000/svg" xmlns:xlink="http://www.w3.org/1999/xlink" version="1.1" x="0px" y="0px" viewBox="0 0 100 125" enable-background="new 0 0 100 100" xml:space="preserve"><path d="M3.497,56.34c0.662,1.158,1.476,3.532,1.809,4.001c1.849,2.602,5.342,2.995,8.282,2.668c0,0,37.622-5.25,50.472-10.622  C51.026,55.53,31.461,57.957,3.497,56.34z"/><path d="M96.046,28.292"/><path d="M42.011,52.923L10.836,53.84l31.175-5.501c3.144,0.175,6.325,0.179,9.467,0.004c11.535-0.641,22.561-3.216,32.114-9.957  c2.268-1.601,4.536-3.201,6.818-4.781c1.72-1.19,4.738-3.459,5.697-5.438c-0.235,0.474-19.966,2.286-23.793,2.083  c-1.962-0.104-3.599-1.31-5.62-1.235c-2.211,0.08-33.721,10.357-37.083,12.085c-4.07,2.092-7.47,5.269-11.555,7.405  c-3.613,1.89-7.245,3.766-10.965,5.438c-1.171,0.526-2.454,0.952-3.624,1.481c11.998,0.902,41.785,1.933,69.511-6.736  C81.126,44.917,92.846,38.212,95.192,30C95.192,30,76.456,50.531,42.011,52.923z M39.261,39.169c0.917,0,22.921-7.334,22.923-7.335  c2.725-0.908,5.182-1.512,7.938-0.132c2.137,1.068,4.372,3.409,2.147,5.634c-8.253,8.252-28.424,5.501-28.424,5.501  C33.759,41.003,39.261,39.169,39.261,39.169z M63.101,43.754c0,0,11.919-2.751,12.836-7.335c0,0,0,4.584-12.836,8.252  c0,0-22.923,3.667-27.507-2.751C35.593,41.92,40.178,47.421,63.101,43.754z"/><polygon points="91.464,46.428 83.527,48.9 81.352,52.538 80.289,53.042 80.795,54.104 44.701,71.264 45.126,72.161 44.196,70.203   43.133,70.706 38.94,70.099 32.013,74.693 34.537,80 42.474,77.529 44.649,73.892 45.71,73.388 45.205,72.325 81.3,55.165   81.805,56.227 82.866,55.722 87.06,56.331 93.986,51.736 "/><text x="0" y="115" fill="#000000" font-size="5px" font-weight="bold" font-family="'Helvetica Neue', Helvetica, Arial-Unicode, Arial, Sans-serif">Created by Yi Chen</text><text x="0" y="120" fill="#000000" font-size="5px" font-weight="bold" font-family="'Helvetica Neue', Helvetica, Arial-Unicode, Arial, Sans-serif">from the Noun Project</text></svg>