<svg xmlns:dc="http://purl.org/dc/elements/1.1/" xmlns:cc="http://creativecommons.org/ns#" xmlns:rdf="http://www.w3.org/1999/02/22-rdf-syntax-ns#" xmlns:svg="http://www.w3.org/2000/svg" xmlns="http://www.w3.org/2000/svg" xmlns:sodipodi="http://sodipodi.sourceforge.net/DTD/sodipodi-0.dtd" xmlns:inkscape="http://www.inkscape.org/namespaces/inkscape" version="1.1" x="0px" y="0px" viewBox="0 0 504.73044 685.188675" enable-background="new 0 0 595 842" xml:space="preserve"><path style="" d="m 270.98265,177.55493 c 0.6223,4.218 -2.6961,8.02 -7.2596,8.574 -4.6327,0.553 -8.9191,-2.42 -9.4727,-6.637 -1.0367,-6.776 -2.8347,-14.451 -4.5629,-22.264 -6.3609,-27.38 -12.9983,-56.212 7.1904,-73.220996 20.95,-17.561 12.3068,-38.234 3.6647,-58.907 -2.0739,-4.909 -4.1484,-9.819 -6.0151,-15.1420004 -1.383,-4.01 1.1059,-8.367 5.5309,-9.61100005 4.4249,-1.246 9.1956,0.96800005 10.5786,4.97800005 1.5209,4.425 3.5955,9.4030004 5.67,14.3130004 10.6473,25.512 35.6765,54.137 6.2916,78.751 -13.1368,11.062996 -21.7795,32.495996 -16.3866,55.727996 1.7981,7.951 3.5955,15.833 4.7707,23.438 l 0,0 z m -76.4008,0 c 0.6217,4.218 -2.6961,8.02 -7.2596,8.574 -4.6327,0.553 -8.9197,-2.42 -9.4721,-6.637 -1.0373,-6.776 -2.8353,-14.451 -4.564,-22.195 -6.3604,-27.38 -12.9978,-56.281 7.1909,-73.289996 20.95,-17.561 12.3074,-38.234 3.6647,-58.907 -2.0052,-4.909 -4.1484,-9.819 -5.9458,-15.1420004 -1.4523,-4.01 1.0366,-8.367 5.4616,-9.61100005 4.4249,-1.246 9.1956,0.96800005 10.5786,4.97800005 1.5209,4.425 3.6647,9.4030004 5.6694,14.3130004 10.6485,25.512 31.6666,54.137 2.351,78.751 -13.1363,11.062996 -17.8383,32.495996 -12.5146,55.727996 1.8673,8.02 3.6647,15.833 4.8399,23.438 l 0,0 z m -69.832,0 c -1.1764,-7.536 -2.9733,-15.418 -4.7707,-23.37 -5.3935,-23.231 1.6589,-47.776 14.865,-58.906996 29.3156,-24.545 5.9459,-50.059 -4.7014,-75.572 -2.0745,-4.909 -4.1485,-9.8870004 -5.6694,-14.3110004 -1.4523,-4.08 -6.1537,-6.29200005 -10.5787,-4.97900005 -4.4255,1.31300005 -6.9837,5.60000005 -5.5314,9.61100045 1.8667,5.324 3.9412,10.233 6.0151,15.141 8.6427,20.674 17.2853,41.347 -3.7334,58.909 -20.189804,17.008996 -13.482604,45.908996 -7.1909,73.288996 1.7287,7.744 3.5262,15.419 4.4942,22.195 0.6222,4.217 4.8399,7.19 9.5419,6.637 4.5629,-0.622 7.812,-4.495 7.2597,-8.643 l 0,0 z m 259.2089,82.278 c 155.2911,-23.646 175.2039,169.603 -25.3744,214.268 -12.5833,23.923 -29.3849,45.288 -49.3663,63.057 -8.2283,7.329 -17.7696,10.993 -28.7633,10.993 l -176.7929,0 c -11.062904,0 -20.604304,-3.595 -28.832504,-10.993 -45.8401,-40.793 -74.67150102,-100.254 -74.67150102,-166.492 l 0,-109.381 c 0,-2.351 -0.073,-4.632 -0.1449,-6.983 -0.2072,-6.776 2.07390002,-12.653 6.77590002,-17.492 4.7014,-4.84 10.5781,-7.33 17.354601,-7.33 l 335.817504,0 c 6.7759,0 12.5839,2.49 17.2853,7.33 4.6321,4.839 6.9831,10.716 6.7753,17.492 -0.072,1.798 -0.072,3.664 -0.072,5.531 l 0,0 z m -7.1904,166.906 c 84.6983,-23.646 125.9063,-148.03 7.1904,-122.103 l 0,65.961 c 0,19.429 -2.489,38.235 -7.1904,56.142 l 0,0 z m -254.231,48.054 c -13.4139,-13.207 -24.061204,-29.731 -31.252204,-48.33 -7.2596,-18.806 -11.1316,-39.894 -11.1316,-62.02 l 0,-86.633 c 0,-9.334 -7.6054,-16.94 -16.9395,-16.94 -9.4034,0 -17.0088,7.606 -17.0088,16.94 l 0,86.633 c 0,26.136 4.7014,51.372 13.5518,74.189 8.9884,23.093 22.1253,43.628 38.9956,60.291 6.706604,6.568 17.423204,6.43 23.991904,-0.208 6.4302,-6.638 6.3609,-17.354 -0.2072,-23.923 z" clip-rule="evenodd" fill="#000000" fill-rule="evenodd"/><text x="0" y="563.15094" fill="#000000" font-size="5px" font-weight="bold" font-family="'Helvetica Neue', Helvetica, Arial-Unicode, Arial, Sans-serif">Created by jeff</text><text x="0" y="568.15094" fill="#000000" font-size="5px" font-weight="bold" font-family="'Helvetica Neue', Helvetica, Arial-Unicode, Arial, Sans-serif">from the Noun Project</text></svg>