<svg xmlns="http://www.w3.org/2000/svg" xmlns:xlink="http://www.w3.org/1999/xlink" version="1.1" x="0px" y="0px" viewBox="0 0 100 125" enable-background="new 0 0 100 100" xml:space="preserve"><path d="M28.405,50.015h2.987c-0.372,4.135-3.432,6.626-7.225,6.626c-4.062,0-7.277-3.318-7.277-7.515V25.352  c1.034-0.403,2.336-1.644,2.336-3.122c0-1.478-1.302-2.719-2.336-3.132V4.545h-2.067V19.16c-1.034,0.465-2.15,1.654-2.15,3.07  c0,1.406,1.116,2.605,2.15,3.07v23.826c0,5.354,4.083,9.541,9.303,9.541s9.303-4.186,9.303-9.541v-8.259L28.405,50.015z"/><path d="M50.474,60.3c-1.675,1.003-3.349,2.047-4.91,3.204c-0.114,0.083-0.217,0.176-0.331,0.269  c-0.393-2.677-0.517-6.047,0.279-7.05c0.031-0.041,0.062-0.072,0.083-0.093c0.527,0.362,1.168,0.879,1.84,1.426  C48.489,58.905,49.513,59.732,50.474,60.3z M87.996,79.371c-1.116,1.902-2.698,3.091-4.135,3.091c-4.176,0-7.856-0.889-7.887-0.899  c-0.176-0.041-0.393-0.052-0.558,0c-0.165,0.052-0.331,0.176-0.455,0.31c-3.235,3.483-6.884,6.295-10.802,8.383  c4.331-14.616-3.68-18.182-4.031-18.337c-0.538-0.217-1.137,0.031-1.354,0.558c-0.227,0.527,0.021,1.137,0.548,1.354  c0.072,0.031,7.287,3.256,2.264,17.676c-4.548,1.985-9.396,3.039-14.358,3.039c-4.166,0-8.331-2.346-10.998-3.876  c-0.32-0.186-0.393-0.62-0.155-0.91c0.486-0.589,0.775-1.044,0.775-1.406c0-0.889-1.096-1.075-2.171-1.013  c-0.382,0.021-0.693-0.279-0.651-0.651c0.744-6.161,5.334-16.053,12.766-21.521c2.233-1.654,4.651-3.06,7.205-4.538  C61.958,56,73.855,47.628,72.966,31.037c-0.134-2.45-1.034-5.354-2.615-6.946C68.904,22.634,67.23,21.9,65.4,21.9  c-3.07,0-11.329,1.737-15.608,2.677c2.274-3.721,4.362-6.119,6.223-7.143l1.116-0.62l-0.827-0.961  c-2.491-2.905-4.176-6.771-5.034-9.034c4.372,0.176,16.818,2.129,28.849,14.936c10.853,11.546,9.231,29.873,7.515,36.158  c-1.53,5.613-3.639,10.74-6.264,15.246c-0.01,0.031-0.01,0.052-0.021,0.083c-3.721,0.796-6.76,0.227-6.801,0.227  c-0.558-0.124-1.106,0.248-1.22,0.806c-0.103,0.558,0.258,1.106,0.817,1.22c0.32,0.062,7.939,1.509,14.564-3.246  C89.65,74.234,89.391,76.983,87.996,79.371z M54.309,79.909c-0.269-0.972-0.951-1.757-1.912-2.212  c-0.91-0.424-1.974-0.506-2.998-0.227c-1.023,0.279-1.892,0.899-2.45,1.737c-0.6,0.879-0.775,1.902-0.506,2.874  c0.269,0.972,0.941,1.757,1.902,2.212c0.558,0.258,1.168,0.393,1.799,0.393c0.393,0,0.796-0.052,1.199-0.165  c1.023-0.279,1.902-0.899,2.46-1.737C54.391,81.904,54.578,80.88,54.309,79.909z M52.32,80.458c-0.133-0.48-0.47-0.869-0.945-1.094  c-0.45-0.21-0.976-0.25-1.482-0.112c-0.506,0.138-0.935,0.445-1.211,0.859c-0.296,0.434-0.383,0.94-0.25,1.421  c0.133,0.48,0.465,0.869,0.94,1.094c0.276,0.128,0.577,0.194,0.889,0.194c0.194,0,0.394-0.026,0.593-0.082  c0.506-0.138,0.94-0.445,1.216-0.859C52.361,81.445,52.453,80.939,52.32,80.458z"/><text x="0" y="115" fill="#000000" font-size="5px" font-weight="bold" font-family="'Helvetica Neue', Helvetica, Arial-Unicode, Arial, Sans-serif">Created by  Laymik</text><text x="0" y="120" fill="#000000" font-size="5px" font-weight="bold" font-family="'Helvetica Neue', Helvetica, Arial-Unicode, Arial, Sans-serif">from the Noun Project</text></svg>