<svg xmlns="http://www.w3.org/2000/svg" xmlns:xlink="http://www.w3.org/1999/xlink" version="1.1" x="0px" y="0px" viewBox="0 0 100 125" enable-background="new 0 0 100 100" xml:space="preserve"><g><path d="M49.069,37.655c0.373-0.104,0.754-0.206,1.146-0.298c5.918-1.395,10.305-0.964,15.858-0.419   c2.355,0.231,5.024,0.494,8.102,0.639c0.525,0.023,1.03,0.047,1.521,0.07l0.987-1.196c-5.166,0.009-7.28-0.219-15.325-1.325   c-8.872-1.22-12.525-0.206-13.285,0.586c-0.124,0.128-0.174,0.264-0.158,0.43C47.966,36.687,48.681,37.352,49.069,37.655z"/><path d="M53.767,40.328l-10.223,0.354c-2.59,1.502-4.239,3.104-4.971,3.897c1.729,0.027,6.385,0.13,10.254,0.476   C49.322,44.475,51.375,42.131,53.767,40.328z"/><path d="M9.861,61.853l0.411,0.013c1.801-1.103,4.609-2.443,7.898-2.692c0.354-0.026,0.688-0.04,0.992-0.04   c2.23,0,2.795,0.719,3.293,1.353c0.382,0.488,0.685,0.873,1.888,0.873c0.338,0,0.737-0.033,1.187-0.097   c2.446-0.345,3.585-0.894,4.686-1.425c1.077-0.518,2.095-1.009,4.156-1.198c0.244-0.021,0.479-0.034,0.698-0.034   c1.636,0,2.331,0.622,2.946,1.171c0.515,0.458,0.958,0.855,1.955,0.855c0.309,0,0.664-0.039,1.056-0.115   c1.649-0.32,2.558-0.747,3.36-1.125c1.094-0.515,2.039-0.959,4.314-1.02c2.075-0.054,3.028,0.408,3.869,0.817   c0.796,0.386,1.544,0.747,3.196,0.653c1.646-0.095,2.366-0.478,3.129-0.885c0.837-0.444,1.784-0.95,3.972-1.12   c0.304-0.024,0.593-0.036,0.859-0.036c1.521,0,2.23,0.385,2.856,0.725c0.533,0.291,0.994,0.54,1.938,0.54   c0.35,0,0.738-0.032,1.189-0.103c1.93-0.3,2.759-0.778,3.639-1.287c0.796-0.46,1.62-0.936,3.255-1.227   c0.391-0.07,0.769-0.104,1.117-0.104c1.268,0,2.084,0.452,2.805,0.852c0.722,0.4,1.333,0.737,2.308,0.641   c0.939-0.095,1.524-0.44,2.203-0.842c0.968-0.574,2.064-1.225,4.406-1.247h0.116c1.924,0,2.744,0.461,3.538,0.907   c0.107,0.06,0.212,0.119,0.316,0.176c-1.584-4.438-4.004-6.645-4.499-7.064c-3.063,0.23-7.822,0.353-13.779,0.353   c-0.508,0-1.022-0.002-1.546-0.003l-0.253-0.644c0.609,0.004,1.212,0.005,1.799,0.005c2.695,0,5.14-0.025,7.297-0.074   c-0.173-0.113-0.339-0.23-0.501-0.345v-9.453c1.524-0.331,2.875-0.674,3.904-0.952c-2.083-0.048-5.799-0.161-11.691-0.437   c-3.093-0.146-5.772-0.409-8.134-0.641c-5.495-0.539-9.835-0.965-15.648,0.405c-2.133,0.503-3.98,1.223-5.55,2.012l11.127-0.383   l-0.938,0.628c-2.407,1.607-4.688,4.095-5.486,5.004c-26.583-0.975-45.429-2.102-45.681-2.118l-0.466-0.027l-0.043,0.464   c-0.15,1.618,0.438,3.144,0.89,4.046c-0.188-0.009-0.353-0.018-0.485-0.023C5.511,55.208,9.237,60.931,9.861,61.853z M5.331,47.662   c-0.266-0.474-1.061-2.017-1.068-3.547c0.879,0.051,2.922,0.168,5.939,0.331l1.512,3.519C9.01,47.838,6.806,47.732,5.331,47.662z    M12.784,48.016l-1.51-3.513c2.221,0.118,4.889,0.255,7.949,0.406l1.367,3.468C17.759,48.247,15.113,48.123,12.784,48.016z    M21.645,48.425l-1.364-3.464c2.563,0.124,5.378,0.257,8.416,0.394l0.279,0.865c-2.621,0.551-4.377,1.204-5.38,1.651   c1.95,0.088,3.964,0.179,5.999,0.269l0.209,0.651C27.011,48.668,24.259,48.544,21.645,48.425z M30.83,48.836l-0.21-0.651   c2.658,0.117,5.341,0.234,7.971,0.345l0.245,0.653C36.198,49.07,33.501,48.954,30.83,48.836z M29.725,45.401   c1.117,0.049,2.269,0.102,3.442,0.152c-1.188,0.134-2.266,0.298-3.24,0.479L29.725,45.401z M39.881,49.226l-0.245-0.653   c2.346,0.099,4.64,0.192,6.814,0.275c0.092,0.005,0.184,0.01,0.276,0.013l0.274,0.651c-0.192-0.007-0.384-0.015-0.576-0.022   C44.333,49.409,42.134,49.319,39.881,49.226z M48.062,49.552l-0.274-0.653c2.04,0.078,4.071,0.146,6.077,0.209l0.231,0.65   C52.104,49.697,50.089,49.628,48.062,49.552z M55.128,49.789l-0.23-0.65c1.86,0.057,3.695,0.104,5.497,0.146l0.163,0.647   C58.779,49.891,56.966,49.843,55.128,49.789z M60.703,46.591c0.924,0.03,1.855,0.06,2.792,0.088   c0.981,0.33,1.436,0.618,1.632,0.779h0.955L66.26,48.1h-1.415l-0.097-0.119c-0.003-0.005-0.69-0.679-4.03-1.331L60.703,46.591z    M61.559,49.955l-0.165-0.646c1.784,0.041,3.53,0.073,5.228,0.099l0.179,0.645C65.098,50.026,63.347,49.995,61.559,49.955z    M67.803,50.065l-0.179-0.645c1.609,0.023,3.172,0.039,4.678,0.048l0.252,0.643C71.026,50.104,69.438,50.088,67.803,50.065z    M71.514,47.458l0.251,0.642h-4.506l-0.177-0.642H71.514z M72.798,48.1l-0.252-0.642h0.119c-0.079-0.124-0.168-0.246-0.264-0.367   l-0.062-0.156c0.245,0.007,0.498,0.013,0.751,0.021c0.157,0.224,0.3,0.452,0.41,0.688l0.215,0.457H72.798z M81.61,39.679v9.144   c-0.108-0.082-0.216-0.165-0.32-0.248v-8.832c0.103-0.021,0.203-0.042,0.304-0.064H81.61z M76.672,40.534   c1.479-0.191,2.939-0.447,4.296-0.725v8.506c-0.475-0.396-0.901-0.793-1.283-1.191c0.161,0.003,0.327,0.007,0.486,0.01l0.33,0.007   l-0.735-0.983l-0.081-0.001c-0.286-0.007-0.572-0.013-0.862-0.021c-2.15-2.7-2.414-5.107-2.428-5.255l-0.03-0.309L76.672,40.534z    M57.238,40.158l0.167,0.03c0.493,0.086,10.776,1.935,14.826,5.781c-0.336-0.009-0.671-0.018-1.005-0.027   c-3.943-3.14-12.47-4.848-13.767-5.092l-4.167,4.265c1.722,0.118,3.191,0.261,4.456,0.417c-1.889-0.063-3.748-0.127-5.573-0.192   L57.238,40.158z M3.646,43.592l0.014-0.155l0.155,0.009c0.34,0.021,34.46,2.062,75.787,3.031l0.246,0.33   c-2.479-0.058-5.356-0.134-7.741-0.198l-0.242-0.006l1.381,3.513c-0.114,0-0.23-0.001-0.347-0.001l-1.38-3.522l-0.107-0.003   c-1.588-0.043-3.164-0.088-4.724-0.133l-0.218-0.007l0.999,3.612c-0.113-0.001-0.223-0.001-0.335-0.003l-1-3.62l-0.119-0.003   c-1.861-0.055-3.702-0.112-5.516-0.17l-0.213-0.007l0.939,3.69c-0.111-0.003-0.223-0.006-0.334-0.007l-0.94-3.694l-0.12-0.004   c-2.084-0.067-4.135-0.136-6.146-0.207l-0.236-0.008l1.335,3.752c-0.114-0.003-0.229-0.008-0.345-0.011l-1.336-3.753l-0.109-0.004   c-2.261-0.079-4.472-0.161-6.626-0.243l-0.252-0.009l1.592,3.78c-0.117-0.005-0.235-0.009-0.354-0.014l-1.589-3.78l-0.103-0.004   c-2.519-0.097-4.958-0.194-7.31-0.291l-0.242-0.009l1.421,3.77c-0.115-0.005-0.23-0.01-0.348-0.016l-1.42-3.769l-0.105-0.004   c-2.858-0.118-5.582-0.237-8.15-0.352l-0.232-0.01l1.212,3.762c-0.114-0.005-0.229-0.009-0.343-0.015l-1.211-3.762l-0.111-0.004   c-3.18-0.143-6.117-0.283-8.775-0.413L19.8,44.615l1.494,3.794c-0.117-0.006-0.234-0.012-0.352-0.016l-1.496-3.795l-0.103-0.006   c-3.224-0.158-6.016-0.302-8.31-0.424l-0.258-0.014l1.65,3.843c-0.121-0.006-0.238-0.011-0.356-0.017l-1.651-3.845l-0.1-0.006   c-3.285-0.176-5.433-0.3-6.205-0.345L3.95,43.775l-0.006,0.166c-0.049,1.5,0.652,3.023,1.014,3.704   c-0.131-0.006-0.256-0.012-0.373-0.018C4.153,46.796,3.493,45.224,3.646,43.592z"/><path d="M96.43,59.561c-0.176-0.009-0.438-0.013-0.778-0.058c-0.34-0.031-0.755-0.115-1.221-0.265   c-0.471-0.15-0.951-0.432-1.506-0.764c-0.553-0.331-1.25-0.618-2.035-0.735c-0.199-0.021-0.399-0.047-0.605-0.069   c-0.203-0.011-0.405-0.02-0.614-0.028c-0.436-0.005-0.868,0.006-1.328,0.051c-0.908,0.085-1.894,0.379-2.79,0.883   c-0.452,0.241-0.879,0.509-1.332,0.695c-0.113,0.049-0.228,0.089-0.344,0.125c-0.119,0.042-0.232,0.065-0.346,0.091   c-0.107,0.03-0.245,0.046-0.381,0.063c-0.06,0.006-0.153,0.021-0.183,0.021l-0.186,0.003c-0.495,0.013-0.968-0.104-1.44-0.342   c-0.477-0.237-0.97-0.571-1.555-0.832c-0.588-0.266-1.259-0.404-1.93-0.409c-0.17,0.006-0.344,0.011-0.517,0.017   c-0.152,0.018-0.304,0.037-0.459,0.055l-0.115,0.014c-0.006,0-0.058,0.009-0.049,0.009l-0.031,0.006l-0.06,0.014l-0.239,0.053   c-0.159,0.034-0.32,0.069-0.481,0.104c-0.324,0.056-0.64,0.186-0.961,0.293c-0.329,0.096-0.621,0.27-0.935,0.408   c-0.294,0.149-0.585,0.324-0.865,0.469l-0.419,0.223c-0.139,0.075-0.282,0.125-0.424,0.189c-0.142,0.057-0.281,0.129-0.427,0.176   l-0.437,0.131c-0.149,0.043-0.284,0.097-0.443,0.133L70.5,60.377l-0.497,0.097l-0.125,0.024l-0.063,0.012   c-0.017,0.003,0.03-0.005-0.004,0l-0.029,0.003l-0.239,0.026c-0.319,0.045-0.635,0.059-0.943,0.054   c-0.148-0.012-0.307-0.004-0.448-0.035l-0.216-0.033l-0.207-0.057c-0.275-0.082-0.533-0.207-0.834-0.377   c-0.303-0.171-0.656-0.353-1.033-0.488c-0.191-0.058-0.383-0.128-0.577-0.161l-0.293-0.06l-0.289-0.034l-0.289-0.033l-0.295-0.01   c-0.194-0.005-0.399-0.016-0.569-0.002l-0.552,0.021l-0.556,0.052c-0.739,0.085-1.499,0.224-2.239,0.494   c-0.751,0.259-1.406,0.69-1.995,0.943c-0.598,0.274-1.224,0.395-1.909,0.461c-0.696,0.063-1.376,0.072-2.001-0.061   c-0.315-0.056-0.609-0.167-0.917-0.294c-0.303-0.13-0.629-0.306-0.985-0.464c-0.354-0.166-0.748-0.297-1.138-0.401   c-0.396-0.094-0.788-0.158-1.189-0.189c-0.197-0.011-0.41-0.031-0.596-0.031h-0.548c-0.413,0.02-0.771,0.054-1.158,0.079   l-0.286,0.023l-0.287,0.053l-0.576,0.104c-0.193,0.026-0.381,0.092-0.57,0.15c-0.187,0.06-0.378,0.113-0.561,0.181   c-0.725,0.288-1.368,0.628-1.998,0.881c-0.159,0.075-0.316,0.129-0.473,0.18l-0.471,0.159c-0.148,0.06-0.328,0.099-0.502,0.141   l-0.52,0.127c-0.648,0.171-1.31,0.265-1.867,0.182c-0.268-0.064-0.52-0.125-0.75-0.292c-0.239-0.155-0.471-0.366-0.756-0.612   c-0.285-0.235-0.606-0.493-0.988-0.66c-0.371-0.183-0.768-0.276-1.154-0.334c-0.389-0.044-0.811-0.062-1.126-0.032l-0.254,0.014   l-0.063,0.005l-0.059,0.003l-0.033,0.004l-0.131,0.02l-0.523,0.079c-0.693,0.078-1.387,0.271-2.042,0.5   c-0.657,0.241-1.261,0.554-1.829,0.825c-0.285,0.137-0.568,0.278-0.853,0.385l-0.426,0.17l-0.212,0.083l-0.215,0.064   c-0.287,0.085-0.57,0.17-0.854,0.254c-0.285,0.08-0.602,0.123-0.896,0.188c-0.15,0.03-0.299,0.059-0.447,0.088l-0.224,0.044   l-0.111,0.021l-0.056,0.011c0.02-0.003-0.025,0.003-0.034,0.003c-0.285,0.028-0.573,0.081-0.849,0.094   c-0.555,0.035-1.092-0.003-1.482-0.207c-0.105-0.037-0.182-0.125-0.275-0.188c-0.086-0.085-0.166-0.164-0.255-0.271   c-0.165-0.199-0.358-0.444-0.591-0.654c-0.115-0.107-0.254-0.192-0.379-0.285c-0.137-0.076-0.279-0.141-0.416-0.207   c-0.284-0.093-0.568-0.189-0.846-0.214c-0.139-0.018-0.276-0.037-0.414-0.057c-0.138-0.004-0.273-0.007-0.409-0.012   c-0.135-0.003-0.271-0.006-0.403-0.009c-0.126,0.009-0.252,0.017-0.377,0.025c-1.02,0.048-1.977,0.23-2.855,0.444   c-1.752,0.459-3.195,1.108-4.318,1.737c-1.129,0.624-1.945,1.227-2.489,1.645c-0.542,0.423-0.808,0.677-0.808,0.677   s0.281-0.235,0.849-0.62c0.565-0.387,1.423-0.913,2.563-1.481c1.138-0.567,2.59-1.131,4.311-1.493   c0.863-0.166,1.789-0.297,2.771-0.294c0.125-0.003,0.25-0.005,0.377-0.006c0.119,0.008,0.24,0.017,0.361,0.023   c0.121,0.008,0.242,0.016,0.365,0.022c0.118,0.022,0.238,0.044,0.359,0.064c0.48,0.09,0.938,0.246,1.26,0.577   c0.17,0.167,0.315,0.362,0.499,0.6c0.087,0.113,0.202,0.238,0.313,0.355c0.133,0.105,0.252,0.232,0.413,0.309l0.231,0.125   c0.078,0.034,0.159,0.054,0.24,0.082l0.244,0.074c0.08,0.017,0.16,0.024,0.24,0.038c0.326,0.06,0.638,0.051,0.955,0.052   c0.313-0.006,0.619-0.045,0.933-0.07c0.027-0.004,0.021-0.001,0.077-0.009l0.056-0.011l0.112-0.018l0.223-0.039   c0.15-0.025,0.301-0.051,0.451-0.075c0.303-0.058,0.602-0.09,0.914-0.168c0.314-0.085,0.632-0.168,0.951-0.253l0.239-0.065   l0.231-0.085l0.465-0.174c0.314-0.107,0.61-0.246,0.911-0.38c0.602-0.271,1.169-0.545,1.759-0.744   c0.144-0.062,0.296-0.101,0.447-0.135l0.457-0.113c0.299-0.093,0.626-0.111,0.943-0.159l0.479-0.066l0.121-0.016l0.022-0.003   c0.006,0,0.013,0,0.012,0l0.064-0.003l0.254-0.011c0.363-0.024,0.627,0.006,0.918,0.037c0.601,0.088,1.064,0.324,1.547,0.758   c0.24,0.212,0.52,0.481,0.865,0.715c0.342,0.25,0.779,0.395,1.195,0.486c0.847,0.134,1.623,0.007,2.354-0.168l0.522-0.12   c0.175-0.042,0.346-0.078,0.533-0.145l0.552-0.183c0.186-0.06,0.368-0.122,0.537-0.199c0.708-0.285,1.349-0.618,1.975-0.862   c0.158-0.056,0.317-0.098,0.477-0.147c0.158-0.05,0.315-0.106,0.484-0.126l0.498-0.088l0.25-0.046l0.26-0.019l1.025-0.066   l0.547,0.003c0.182,0.001,0.332,0.021,0.499,0.029c0.329,0.027,0.66,0.084,0.976,0.16c0.314,0.088,0.618,0.188,0.928,0.334   c0.313,0.139,0.633,0.308,1.003,0.467c0.368,0.15,0.765,0.297,1.171,0.368c0.811,0.164,1.609,0.141,2.361,0.07   c0.762-0.073,1.586-0.235,2.309-0.574c0.738-0.333,1.3-0.715,1.916-0.925c0.614-0.229,1.274-0.355,1.952-0.436l0.51-0.057   l0.513-0.028c0.186-0.015,0.335-0.005,0.494-0.003l0.236,0.003l0.237,0.022l0.236,0.023l0.228,0.044   c0.154,0.021,0.294,0.074,0.439,0.114c0.284,0.099,0.558,0.229,0.865,0.396c0.308,0.168,0.68,0.347,1.069,0.455l0.295,0.075   L68,61.687c0.198,0.034,0.388,0.026,0.58,0.037c0.377,0,0.746-0.025,1.1-0.077l0.268-0.034l0.032-0.005   c-0.013,0.003,0.056-0.009,0.06-0.011l0.063-0.013l0.124-0.025l0.497-0.104l0.493-0.104c0.167-0.04,0.344-0.106,0.516-0.158   l0.517-0.17c0.169-0.06,0.323-0.144,0.485-0.215c0.157-0.075,0.323-0.142,0.472-0.226l0.444-0.25   c0.294-0.164,0.557-0.33,0.833-0.48c0.274-0.127,0.533-0.294,0.817-0.382c0.281-0.101,0.55-0.226,0.849-0.28   c0.285-0.066,0.592-0.157,0.854-0.2c0.155-0.022,0.308-0.045,0.459-0.067l0.403-0.02c0.552-0.01,1.083,0.087,1.587,0.29   c0.506,0.202,0.993,0.505,1.548,0.762c0.556,0.258,1.204,0.398,1.809,0.356l0.227-0.014c0.104-0.012,0.143-0.022,0.221-0.032   c0.131-0.021,0.263-0.04,0.416-0.084c0.147-0.037,0.292-0.074,0.425-0.128c0.135-0.046,0.269-0.099,0.395-0.16   c0.512-0.233,0.948-0.527,1.366-0.779c0.826-0.517,1.686-0.819,2.548-0.946c0.426-0.063,0.855-0.095,1.256-0.111   c0.208,0,0.411-0.002,0.614-0.002c0.19,0.014,0.382,0.025,0.566,0.037c0.752,0.078,1.402,0.308,1.963,0.605   c0.559,0.299,1.086,0.571,1.581,0.691c0.489,0.12,0.916,0.176,1.26,0.185c0.346,0.024,0.608,0.011,0.784,0.006   c0.179-0.004,0.269-0.006,0.269-0.006S96.608,59.568,96.43,59.561z"/></g><text x="0" y="115" fill="#000000" font-size="5px" font-weight="bold" font-family="'Helvetica Neue', Helvetica, Arial-Unicode, Arial, Sans-serif">Created by Bakunetsu Kaito</text><text x="0" y="120" fill="#000000" font-size="5px" font-weight="bold" font-family="'Helvetica Neue', Helvetica, Arial-Unicode, Arial, Sans-serif">from the Noun Project</text></svg>