<svg xmlns="http://www.w3.org/2000/svg" xmlns:xlink="http://www.w3.org/1999/xlink" xml:space="preserve" version="1.1" style="shape-rendering:geometricPrecision;text-rendering:geometricPrecision;image-rendering:optimizeQuality;" viewBox="0 0 333 416.25" x="0px" y="0px" fill-rule="evenodd" clip-rule="evenodd"><defs><style type="text/css">
   
    .fil0 {fill:black;fill-rule:nonzero}
   
  </style></defs><g><path class="fil0" d="M113 82c9,-59 96,-60 107,-1 27,21 26,63 -3,83 1,2 -40,129 -48,132 -4,1 -7,-1 -9,-4 -5,-15 -45,-121 -44,-126 -28,-21 -30,-62 -3,-84zm17 -9c36,-12 75,21 62,30 -3,2 -7,1 -9,-2 -15,-21 -46,-23 -64,-6 -26,25 -9,48 13,65l64 0c41,-33 40,-76 -9,-77 -9,-1 -14,-20 16,-11 -16,-30 -59,-29 -73,1zm37 197l35 -97 -70 0 35 97z"/></g><text x="0" y="348" fill="#000000" font-size="5px" font-weight="bold" font-family="'Helvetica Neue', Helvetica, Arial-Unicode, Arial, Sans-serif">Created by mouse</text><text x="0" y="353" fill="#000000" font-size="5px" font-weight="bold" font-family="'Helvetica Neue', Helvetica, Arial-Unicode, Arial, Sans-serif">from the Noun Project</text></svg>