<svg xmlns:dc="http://purl.org/dc/elements/1.1/" xmlns:cc="http://creativecommons.org/ns#" xmlns:rdf="http://www.w3.org/1999/02/22-rdf-syntax-ns#" xmlns:svg="http://www.w3.org/2000/svg" xmlns="http://www.w3.org/2000/svg" xmlns:sodipodi="http://sodipodi.sourceforge.net/DTD/sodipodi-0.dtd" xmlns:inkscape="http://www.inkscape.org/namespaces/inkscape" version="1.1" x="0px" y="0px" viewBox="0 0 100 125"><g transform="translate(0,-952.36218)"><path style="text-indent:0;text-transform:none;direction:ltr;block-progression:tb;baseline-shift:baseline;color:#000000;enable-background:accumulate;" d="m 50,963.36175 c -21.5154,0 -39,17.4845 -39,38.99995 0,21.1372 16.88119,38.3688 37.875,38.9688 0.37165,0.038 0.74491,0.031 1.125,0.031 0.38009,0 0.75335,0.01 1.125,-0.031 20.99382,-0.6 37.875,-17.8316 37.875,-38.9688 0,-21.51545 -17.48459,-38.99995 -39,-38.99995 z m -2,4.3125 0,15.6875 -11.34375,0 c 0.69517,-2.2931 1.49646,-4.4424 2.40625,-6.3125 2.55306,-5.248 5.72751,-8.4306 8.9375,-9.375 z m 4,0 c 3.20999,0.9444 6.38444,4.127 8.9375,9.375 0.90979,1.8701 1.71108,4.0194 2.40625,6.3125 l -11.34375,0 0,-15.6875 z m -12.5,1.3125 c -1.51312,1.79 -2.86414,3.9134 -4.03125,6.3125 -1.17249,2.4101 -2.17884,5.1362 -3,8.0625 l -11.875,0 c 4.38093,-6.7692 11.05071,-11.911 18.90625,-14.375 z m 21,0 c 7.85554,2.464 14.52532,7.6058 18.90625,14.375 l -11.875,0 c -0.82116,-2.9263 -1.82751,-5.6524 -3,-8.0625 -1.16711,-2.3991 -2.51813,-4.5225 -4.03125,-6.3125 z m -42.125,18.375 13.09375,0 c -0.84049,4.0361 -1.29117,8.421 -1.40625,12.99995 l -15,0 c 0.26339,-4.63635 1.42195,-9.02225 3.3125,-12.99995 z m 17.21875,0 12.40625,0 0,12.99995 -13.9375,0 c 0.12487,-4.63585 0.64264,-9.01715 1.53125,-12.99995 z m 16.40625,0 12.40625,0 c 0.88861,3.9828 1.40638,8.3641 1.53125,12.99995 l -13.9375,0 0,-12.99995 z m 16.53125,0 13.09375,0 c 1.89055,3.9777 3.04911,8.3636 3.3125,12.99995 l -15,0 c -0.11508,-4.57895 -0.56576,-8.96385 -1.40625,-12.99995 z m -53.46875,16.99995 15,0 c 0.1143,4.5831 0.56478,8.9661 1.40625,13 l -13.125,0 c -1.8842,-3.9766 -3.02213,-8.3668 -3.28125,-13 z m 19,0 13.9375,0 0,13 -12.40625,0 c -0.88861,-3.9755 -1.40638,-8.3659 -1.53125,-13 z m 17.9375,0 13.9375,0 c -0.12487,4.6341 -0.64264,9.0245 -1.53125,13 l -12.40625,0 0,-13 z m 17.9375,0 15,0 c -0.25912,4.6332 -1.39705,9.0234 -3.28125,13 l -13.125,0 c 0.84147,-4.0339 1.29195,-8.4169 1.40625,-13 z m -49.34375,17 11.875,0 c 0.82116,2.9215 1.82751,5.6211 3,8.0312 1.17433,2.4139 2.53799,4.5736 4.0625,6.375 -7.87656,-2.4631 -14.55146,-7.6179 -18.9375,-14.4062 z m 16.0625,0 11.34375,0 0,15.6875 c -3.20809,-0.9538 -6.38592,-4.1613 -8.9375,-9.4063 -0.90979,-1.8701 -1.71108,-3.9919 -2.40625,-6.2812 z m 15.34375,0 11.34375,0 c -0.69517,2.2893 -1.49646,4.4111 -2.40625,6.2812 -2.55158,5.245 -5.72941,8.4525 -8.9375,9.4063 l 0,-15.6875 z m 15.53125,0 11.875,0 c -4.38603,6.7883 -11.06094,11.9431 -18.9375,14.4062 1.52451,-1.8014 2.88817,-3.9611 4.0625,-6.375 1.17249,-2.4101 2.17884,-5.1097 3,-8.0312 z" fill="#000000" fill-opacity="1" stroke="none" marker="none" visibility="visible" display="inline" overflow="visible"/></g><text x="0" y="115" fill="#000000" font-size="5px" font-weight="bold" font-family="'Helvetica Neue', Helvetica, Arial-Unicode, Arial, Sans-serif">Created by Kimmi Studio</text><text x="0" y="120" fill="#000000" font-size="5px" font-weight="bold" font-family="'Helvetica Neue', Helvetica, Arial-Unicode, Arial, Sans-serif">from the Noun Project</text></svg>